<?xml version="1.0" encoding="utf-8" standalone="no"?>
<!DOCTYPE svg PUBLIC "-//W3C//DTD SVG 1.1//EN"
  "http://www.w3.org/Graphics/SVG/1.1/DTD/svg11.dtd">
<svg xmlns:xlink="http://www.w3.org/1999/xlink" width="470.215922pt" height="458.563355pt" viewBox="0 0 470.215922 458.563355" xmlns="http://www.w3.org/2000/svg" version="1.1">
 <metadata>
  <rdf:RDF xmlns:dc="http://purl.org/dc/elements/1.1/" xmlns:cc="http://creativecommons.org/ns#" xmlns:rdf="http://www.w3.org/1999/02/22-rdf-syntax-ns#">
   <cc:Work>
    <dc:type rdf:resource="http://purl.org/dc/dcmitype/StillImage"/>
    <dc:date>2026-07-10T09:21:58.700421</dc:date>
    <dc:format>image/svg+xml</dc:format>
    <dc:creator>
     <cc:Agent>
      <dc:title>Matplotlib v3.10.0, https://matplotlib.org/</dc:title>
     </cc:Agent>
    </dc:creator>
   </cc:Work>
  </rdf:RDF>
 </metadata>
 <defs>
  <style type="text/css">*{stroke-linejoin: round; stroke-linecap: butt}</style>
 </defs>
 <g id="figure_1">
  <g id="patch_1">
   <path d="M 0 458.563355 
L 470.215922 458.563355 
L 470.215922 0 
L 0 0 
z
" style="fill: #ffffff"/>
  </g>
  <g id="patch_2">
   <path d="M 7.2 450.72 
L 450.72 450.72 
L 450.72 7.2 
L 7.2 7.2 
z
" style="fill: #ffffff"/>
  </g>
  <g id="pane3d_1">
   <g id="patch_3">
    <path d="M 40.688819 341.362182 
L 187.153607 218.592492 
L 185.117607 41.536652 
L 31.643723 153.534902 
" style="fill: #f2f2f2; opacity: 0.5; stroke: #f2f2f2; stroke-linejoin: miter"/>
   </g>
  </g>
  <g id="pane3d_2">
   <g id="patch_4">
    <path d="M 187.153607 218.592492 
L 422.177334 286.90461 
L 430.564503 103.750285 
L 185.117607 41.536652 
" style="fill: #e6e6e6; opacity: 0.5; stroke: #e6e6e6; stroke-linejoin: miter"/>
   </g>
  </g>
  <g id="pane3d_3">
   <g id="patch_5">
    <path d="M 40.688819 341.362182 
L 289.825448 422.730204 
L 422.177334 286.90461 
L 187.153607 218.592492 
" style="fill: #ececec; opacity: 0.5; stroke: #ececec; stroke-linejoin: miter"/>
   </g>
  </g>
  <g id="grid3d_1">
   <g id="Line3DCollection_1">
    <path d="M 47.067886 343.445585 
L 193.197261 220.349143 
L 191.416324 43.133193 
" style="fill: none; stroke: #b0b0b0; stroke-width: 0.8"/>
    <path d="M 101.016001 361.065039 
L 244.254056 235.189338 
L 244.655176 56.62769 
" style="fill: none; stroke: #b0b0b0; stroke-width: 0.8"/>
    <path d="M 156.242575 379.102038 
L 296.419654 250.351817 
L 299.100649 70.42803 
" style="fill: none; stroke: #b0b0b0; stroke-width: 0.8"/>
    <path d="M 212.793599 397.571602 
L 349.730572 265.847197 
L 354.794236 84.544731 
" style="fill: none; stroke: #b0b0b0; stroke-width: 0.8"/>
    <path d="M 270.717296 416.489482 
L 404.224949 281.686561 
L 411.77935 98.988796 
" style="fill: none; stroke: #b0b0b0; stroke-width: 0.8"/>
   </g>
  </g>
  <g id="grid3d_2">
   <g id="Line3DCollection_2">
    <path d="M 40.128967 147.342757 
L 48.757546 334.598815 
L 297.147175 415.216312 
" style="fill: none; stroke: #b0b0b0; stroke-width: 0.8"/>
    <path d="M 63.540726 130.257921 
L 71.037635 315.923202 
L 317.34606 394.487286 
" style="fill: none; stroke: #b0b0b0; stroke-width: 0.8"/>
    <path d="M 86.349007 113.613477 
L 92.768226 297.70819 
L 337.020623 374.296344 
" style="fill: none; stroke: #b0b0b0; stroke-width: 0.8"/>
    <path d="M 108.576847 97.392611 
L 113.969399 279.936946 
L 356.191018 354.622804 
" style="fill: none; stroke: #b0b0b0; stroke-width: 0.8"/>
    <path d="M 130.246126 81.579359 
L 134.660268 262.593449 
L 374.876379 335.447027 
" style="fill: none; stroke: #b0b0b0; stroke-width: 0.8"/>
    <path d="M 151.377634 66.158546 
L 154.859039 245.662439 
L 393.094883 316.75036 
" style="fill: none; stroke: #b0b0b0; stroke-width: 0.8"/>
    <path d="M 171.991147 51.115744 
L 174.583062 229.129372 
L 410.863812 298.515068 
" style="fill: none; stroke: #b0b0b0; stroke-width: 0.8"/>
   </g>
  </g>
  <g id="grid3d_3">
   <g id="Line3DCollection_3">
    <path d="M 422.293986 284.357229 
L 187.125231 216.124799 
L 40.563225 338.754147 
" style="fill: none; stroke: #b0b0b0; stroke-width: 0.8"/>
    <path d="M 423.51798 257.62834 
L 186.827586 190.240801 
L 39.245054 311.38147 
" style="fill: none; stroke: #b0b0b0; stroke-width: 0.8"/>
    <path d="M 424.758072 230.547886 
L 186.526212 164.032622 
L 37.908883 283.635028 
" style="fill: none; stroke: #b0b0b0; stroke-width: 0.8"/>
    <path d="M 426.014584 203.108886 
L 186.221041 137.494134 
L 36.554343 255.507111 
" style="fill: none; stroke: #b0b0b0; stroke-width: 0.8"/>
    <path d="M 427.287842 175.304171 
L 185.911999 110.619053 
L 35.18105 226.989799 
" style="fill: none; stroke: #b0b0b0; stroke-width: 0.8"/>
    <path d="M 428.578185 147.12638 
L 185.599012 83.400935 
L 33.788613 198.07495 
" style="fill: none; stroke: #b0b0b0; stroke-width: 0.8"/>
    <path d="M 429.885958 118.567954 
L 185.282005 55.833169 
L 32.37663 168.754191 
" style="fill: none; stroke: #b0b0b0; stroke-width: 0.8"/>
   </g>
  </g>
  <g id="axis3d_1">
   <g id="line2d_1">
    <path d="M 40.688819 341.362182 
L 289.825448 422.730204 
" style="fill: none; stroke: #000000; stroke-width: 2; stroke-linecap: square"/>
   </g>
   <g id="xtick_1">
    <g id="line2d_2">
     <path d="M 48.340178 342.373833 
L 44.517855 345.593681 
" style="fill: none; stroke: #000000; stroke-width: 2; stroke-linecap: square"/>
    </g>
    <g id="text_1">
     <text style="font-size: 20px; font-family: 'Arial'; text-anchor: middle" x="39.544873" y="373.412604" transform="rotate(-0 39.544873 373.412604)">−2</text>
    </g>
   </g>
   <g id="xtick_2">
    <g id="line2d_3">
     <path d="M 102.264303 359.968048 
L 98.513987 363.263775 
" style="fill: none; stroke: #000000; stroke-width: 2; stroke-linecap: square"/>
    </g>
    <g id="text_2">
     <text style="font-size: 20px; font-family: 'Arial'; text-anchor: middle" x="93.526018" y="391.255376" transform="rotate(-0 93.526018 391.255376)">−1</text>
    </g>
   </g>
   <g id="xtick_3">
    <g id="line2d_4">
     <path d="M 157.465387 377.978906 
L 153.791588 381.353227 
" style="fill: none; stroke: #000000; stroke-width: 2; stroke-linecap: square"/>
    </g>
    <g id="text_3">
     <text style="font-size: 20px; font-family: 'Arial'; text-anchor: middle" x="148.789316" y="409.521948" transform="rotate(-0 148.789316 409.521948)">0</text>
    </g>
   </g>
   <g id="xtick_4">
    <g id="line2d_5">
     <path d="M 213.989333 396.421384 
L 210.396823 399.877144 
" style="fill: none; stroke: #000000; stroke-width: 2; stroke-linecap: square"/>
    </g>
    <g id="text_4">
     <text style="font-size: 20px; font-family: 'Arial'; text-anchor: middle" x="205.380998" y="428.227599" transform="rotate(-0 205.380998 428.227599)">1</text>
    </g>
   </g>
   <g id="xtick_5">
    <g id="line2d_6">
     <path d="M 271.884271 415.311185 
L 268.378104 418.851368 
" style="fill: none; stroke: #000000; stroke-width: 2; stroke-linecap: square"/>
    </g>
    <g id="text_5">
     <text style="font-size: 20px; font-family: 'Arial'; text-anchor: middle" x="263.349541" y="447.388355" transform="rotate(-0 263.349541 447.388355)">2</text>
    </g>
   </g>
   <g id="text_6">
    <text style="font-size: 12px; font-family: 'Arial'; text-anchor: middle" x="145.735621" y="419.231077" transform="rotate(-0 145.735621 419.231077)">x1</text>
   </g>
  </g>
  <g id="axis3d_2">
   <g id="line2d_7">
    <path d="M 422.177334 286.90461 
L 289.825448 422.730204 
" style="fill: none; stroke: #000000; stroke-width: 2; stroke-linecap: square"/>
   </g>
   <g id="xtick_6">
    <g id="line2d_8">
     <path d="M 295.053861 414.536904 
L 301.339223 416.576885 
" style="fill: none; stroke: #000000; stroke-width: 2; stroke-linecap: square"/>
    </g>
    <g id="text_7">
     <text style="font-size: 20px; font-family: 'Arial'; text-anchor: middle" x="310.03948" y="442.968758" transform="rotate(-0 310.03948 442.968758)">−3</text>
    </g>
   </g>
   <g id="xtick_7">
    <g id="line2d_9">
     <path d="M 315.27167 393.825626 
L 321.500141 395.812298 
" style="fill: none; stroke: #000000; stroke-width: 2; stroke-linecap: square"/>
    </g>
    <g id="text_8">
     <text style="font-size: 20px; font-family: 'Arial'; text-anchor: middle" x="330.075944" y="422.055624" transform="rotate(-0 330.075944 422.055624)">−2</text>
    </g>
   </g>
   <g id="xtick_8">
    <g id="line2d_10">
     <path d="M 334.964886 373.651744 
L 341.137283 375.587171 
" style="fill: none; stroke: #000000; stroke-width: 2; stroke-linecap: square"/>
    </g>
    <g id="text_9">
     <text style="font-size: 20px; font-family: 'Arial'; text-anchor: middle" x="349.59212" y="401.685543" transform="rotate(-0 349.59212 401.685543)">−1</text>
    </g>
   </g>
   <g id="xtick_9">
    <g id="line2d_11">
     <path d="M 354.153665 353.994612 
L 360.270798 355.88075 
" style="fill: none; stroke: #000000; stroke-width: 2; stroke-linecap: square"/>
    </g>
    <g id="text_10">
     <text style="font-size: 20px; font-family: 'Arial'; text-anchor: middle" x="368.608013" y="381.837633" transform="rotate(-0 368.608013 381.837633)">0</text>
    </g>
   </g>
   <g id="xtick_10">
    <g id="line2d_12">
     <path d="M 372.857142 334.834626 
L 378.919815 336.673334 
" style="fill: none; stroke: #000000; stroke-width: 2; stroke-linecap: square"/>
    </g>
    <g id="text_11">
     <text style="font-size: 20px; font-family: 'Arial'; text-anchor: middle" x="387.142616" y="362.492072" transform="rotate(-0 387.142616 362.492072)">1</text>
    </g>
   </g>
   <g id="xtick_11">
    <g id="line2d_13">
     <path d="M 391.0935 316.153161 
L 397.102506 317.946207 
" style="fill: none; stroke: #000000; stroke-width: 2; stroke-linecap: square"/>
    </g>
    <g id="text_12">
     <text style="font-size: 20px; font-family: 'Arial'; text-anchor: middle" x="405.213974" y="343.630024" transform="rotate(-0 405.213974 343.630024)">2</text>
    </g>
   </g>
   <g id="xtick_12">
    <g id="line2d_14">
     <path d="M 408.880022 297.932512 
L 414.836148 299.681575 
" style="fill: none; stroke: #000000; stroke-width: 2; stroke-linecap: square"/>
    </g>
    <g id="text_13">
     <text style="font-size: 20px; font-family: 'Arial'; text-anchor: middle" x="422.839239" y="325.233588" transform="rotate(-0 422.839239 325.233588)">3</text>
    </g>
   </g>
   <g id="text_14">
    <text style="font-size: 12px; font-family: 'Arial'; text-anchor: middle" x="385.921651" y="382.875525" transform="rotate(-0 385.921651 382.875525)">x2</text>
   </g>
  </g>
  <g id="axis3d_3">
   <g id="line2d_15">
    <path d="M 422.177334 286.90461 
L 430.564503 103.750285 
" style="fill: none; stroke: #000000; stroke-width: 2; stroke-linecap: square"/>
   </g>
   <g id="xtick_13">
    <g id="line2d_16">
     <path d="M 420.320215 283.784554 
L 426.246226 285.503941 
" style="fill: none; stroke: #000000; stroke-width: 2; stroke-linecap: square"/>
    </g>
    <g id="text_15">
     <text style="font-size: 20px; font-family: 'Arial'; text-anchor: middle" x="440.57569" y="296.067698" transform="rotate(-0 440.57569 296.067698)">−7.5</text>
    </g>
   </g>
   <g id="xtick_14">
    <g id="line2d_17">
     <path d="M 421.53083 257.062584 
L 427.497039 258.761208 
" style="fill: none; stroke: #000000; stroke-width: 2; stroke-linecap: square"/>
    </g>
    <g id="text_16">
     <text style="font-size: 20px; font-family: 'Arial'; text-anchor: middle" x="441.916691" y="269.370304" transform="rotate(-0 441.916691 269.370304)">−5.0</text>
    </g>
   </g>
   <g id="xtick_15">
    <g id="line2d_18">
     <path d="M 422.757362 229.98928 
L 428.764318 231.666446 
" style="fill: none; stroke: #000000; stroke-width: 2; stroke-linecap: square"/>
    </g>
    <g id="text_17">
     <text style="font-size: 20px; font-family: 'Arial'; text-anchor: middle" x="443.275297" y="242.322401" transform="rotate(-0 443.275297 242.322401)">−2.5</text>
    </g>
   </g>
   <g id="xtick_16">
    <g id="line2d_19">
     <path d="M 424.000126 202.55767 
L 430.048389 204.212657 
" style="fill: none; stroke: #000000; stroke-width: 2; stroke-linecap: square"/>
    </g>
    <g id="text_18">
     <text style="font-size: 20px; font-family: 'Arial'; text-anchor: middle" x="444.651858" y="214.917041" transform="rotate(-0 444.651858 214.917041)">0.0</text>
    </g>
   </g>
   <g id="xtick_17">
    <g id="line2d_20">
     <path d="M 425.259448 174.760591 
L 431.349588 176.392658 
" style="fill: none; stroke: #000000; stroke-width: 2; stroke-linecap: square"/>
    </g>
    <g id="text_19">
     <text style="font-size: 20px; font-family: 'Arial'; text-anchor: middle" x="446.046733" y="187.147089" transform="rotate(-0 446.046733 187.147089)">2.5</text>
    </g>
   </g>
   <g id="xtick_18">
    <g id="line2d_21">
     <path d="M 426.535659 146.590693 
L 432.668261 148.199072 
" style="fill: none; stroke: #000000; stroke-width: 2; stroke-linecap: square"/>
    </g>
    <g id="text_20">
     <text style="font-size: 20px; font-family: 'Arial'; text-anchor: middle" x="447.460289" y="159.005223" transform="rotate(-0 447.460289 159.005223)">5.0</text>
    </g>
   </g>
   <g id="xtick_19">
    <g id="line2d_22">
     <path d="M 427.829104 118.040423 
L 434.004762 119.624324 
" style="fill: none; stroke: #000000; stroke-width: 2; stroke-linecap: square"/>
    </g>
    <g id="text_21">
     <text style="font-size: 20px; font-family: 'Arial'; text-anchor: middle" x="448.892903" y="130.48392" transform="rotate(-0 448.892903 130.48392)">7.5</text>
    </g>
   </g>
   <g id="text_22">
    <text style="font-size: 12px; font-family: 'Arial'; text-anchor: middle" x="469.864062" y="192.052034" transform="rotate(-87.378092 469.864062 192.052034)">Signal</text>
   </g>
  </g>
  <g id="axes_1">
   <g id="Path3DCollection_1">
    <path d="M 240.737688 137.206347 
C 241.576333 137.206347 242.380743 136.873149 242.973756 136.280137 
C 243.566768 135.687125 243.899965 134.882715 243.899965 134.044069 
C 243.899965 133.205423 243.566768 132.401013 242.973756 131.808001 
C 242.380743 131.214989 241.576333 130.881792 240.737688 130.881792 
C 239.899042 130.881792 239.094632 131.214989 238.50162 131.808001 
C 237.908607 132.401013 237.57541 133.205423 237.57541 134.044069 
C 237.57541 134.882715 237.908607 135.687125 238.50162 136.280137 
C 239.094632 136.873149 239.899042 137.206347 240.737688 137.206347 
z
" clip-path="url(#p21b5a9d2eb)" style="fill: #e69f00; fill-opacity: 0.7; stroke: #ffffff; stroke-opacity: 0.7; stroke-width: 0.3"/>
    <path d="M 204.435256 204.336517 
C 205.273902 204.336517 206.078312 204.00332 206.671324 203.410307 
C 207.264336 202.817295 207.597534 202.012885 207.597534 201.174239 
C 207.597534 200.335594 207.264336 199.531184 206.671324 198.938171 
C 206.078312 198.345159 205.273902 198.011962 204.435256 198.011962 
C 203.59661 198.011962 202.7922 198.345159 202.199188 198.938171 
C 201.606176 199.531184 201.272978 200.335594 201.272978 201.174239 
C 201.272978 202.012885 201.606176 202.817295 202.199188 203.410307 
C 202.7922 204.00332 203.59661 204.336517 204.435256 204.336517 
z
" clip-path="url(#p21b5a9d2eb)" style="fill: #e69f00; fill-opacity: 0.7; stroke: #ffffff; stroke-opacity: 0.7; stroke-width: 0.3"/>
    <path d="M 241.749004 195.168183 
C 242.58765 195.168183 243.39206 194.834985 243.985072 194.241973 
C 244.578084 193.648961 244.911282 192.844551 244.911282 192.005905 
C 244.911282 191.167259 244.578084 190.362849 243.985072 189.769837 
C 243.39206 189.176825 242.58765 188.843627 241.749004 188.843627 
C 240.910358 188.843627 240.105948 189.176825 239.512936 189.769837 
C 238.919924 190.362849 238.586726 191.167259 238.586726 192.005905 
C 238.586726 192.844551 238.919924 193.648961 239.512936 194.241973 
C 240.105948 194.834985 240.910358 195.168183 241.749004 195.168183 
z
" clip-path="url(#p21b5a9d2eb)" style="fill: #e69f00; fill-opacity: 0.7; stroke: #ffffff; stroke-opacity: 0.7; stroke-width: 0.3"/>
    <path d="M 184.01982 215.860455 
C 184.858466 215.860455 185.662876 215.527257 186.255888 214.934245 
C 186.8489 214.341233 187.182098 213.536823 187.182098 212.698177 
C 187.182098 211.859531 186.8489 211.055121 186.255888 210.462109 
C 185.662876 209.869097 184.858466 209.5359 184.01982 209.5359 
C 183.181174 209.5359 182.376764 209.869097 181.783752 210.462109 
C 181.19074 211.055121 180.857542 211.859531 180.857542 212.698177 
C 180.857542 213.536823 181.19074 214.341233 181.783752 214.934245 
C 182.376764 215.527257 183.181174 215.860455 184.01982 215.860455 
z
" clip-path="url(#p21b5a9d2eb)" style="fill: #e69f00; fill-opacity: 0.7; stroke: #ffffff; stroke-opacity: 0.7; stroke-width: 0.3"/>
    <path d="M 159.04774 271.830822 
C 159.886385 271.830822 160.690795 271.497625 161.283808 270.904613 
C 161.87682 270.3116 162.210017 269.50719 162.210017 268.668545 
C 162.210017 267.829899 161.87682 267.025489 161.283808 266.432477 
C 160.690795 265.839464 159.886385 265.506267 159.04774 265.506267 
C 158.209094 265.506267 157.404684 265.839464 156.811672 266.432477 
C 156.218659 267.025489 155.885462 267.829899 155.885462 268.668545 
C 155.885462 269.50719 156.218659 270.3116 156.811672 270.904613 
C 157.404684 271.497625 158.209094 271.830822 159.04774 271.830822 
z
" clip-path="url(#p21b5a9d2eb)" style="fill: #e69f00; fill-opacity: 0.7; stroke: #ffffff; stroke-opacity: 0.7; stroke-width: 0.3"/>
    <path d="M 265.785625 201.865428 
C 266.624271 201.865428 267.428681 201.53223 268.021693 200.939218 
C 268.614705 200.346206 268.947902 199.541796 268.947902 198.70315 
C 268.947902 197.864504 268.614705 197.060094 268.021693 196.467082 
C 267.428681 195.87407 266.624271 195.540872 265.785625 195.540872 
C 264.946979 195.540872 264.142569 195.87407 263.549557 196.467082 
C 262.956545 197.060094 262.623347 197.864504 262.623347 198.70315 
C 262.623347 199.541796 262.956545 200.346206 263.549557 200.939218 
C 264.142569 201.53223 264.946979 201.865428 265.785625 201.865428 
z
" clip-path="url(#p21b5a9d2eb)" style="fill: #e69f00; fill-opacity: 0.7; stroke: #ffffff; stroke-opacity: 0.7; stroke-width: 0.3"/>
    <path d="M 208.088031 272.031706 
C 208.926677 272.031706 209.731087 271.698508 210.324099 271.105496 
C 210.917111 270.512484 211.250309 269.708074 211.250309 268.869428 
C 211.250309 268.030782 210.917111 267.226372 210.324099 266.63336 
C 209.731087 266.040348 208.926677 265.70715 208.088031 265.70715 
C 207.249385 265.70715 206.444975 266.040348 205.851963 266.63336 
C 205.258951 267.226372 204.925753 268.030782 204.925753 268.869428 
C 204.925753 269.708074 205.258951 270.512484 205.851963 271.105496 
C 206.444975 271.698508 207.249385 272.031706 208.088031 272.031706 
z
" clip-path="url(#p21b5a9d2eb)" style="fill: #e69f00; fill-opacity: 0.7; stroke: #ffffff; stroke-opacity: 0.7; stroke-width: 0.3"/>
    <path d="M 90.728297 337.666633 
C 91.566943 337.666633 92.371353 337.333435 92.964365 336.740423 
C 93.557377 336.147411 93.890575 335.343001 93.890575 334.504355 
C 93.890575 333.665709 93.557377 332.861299 92.964365 332.268287 
C 92.371353 331.675275 91.566943 331.342077 90.728297 331.342077 
C 89.889651 331.342077 89.085241 331.675275 88.492229 332.268287 
C 87.899217 332.861299 87.56602 333.665709 87.56602 334.504355 
C 87.56602 335.343001 87.899217 336.147411 88.492229 336.740423 
C 89.085241 337.333435 89.889651 337.666633 90.728297 337.666633 
z
" clip-path="url(#p21b5a9d2eb)" style="fill: #e69f00; fill-opacity: 0.7; stroke: #ffffff; stroke-opacity: 0.7; stroke-width: 0.3"/>
    <path d="M 209.387141 278.412626 
C 210.225787 278.412626 211.030197 278.079428 211.623209 277.486416 
C 212.216221 276.893404 212.549419 276.088994 212.549419 275.250348 
C 212.549419 274.411702 212.216221 273.607292 211.623209 273.01428 
C 211.030197 272.421268 210.225787 272.08807 209.387141 272.08807 
C 208.548495 272.08807 207.744085 272.421268 207.151073 273.01428 
C 206.558061 273.607292 206.224863 274.411702 206.224863 275.250348 
C 206.224863 276.088994 206.558061 276.893404 207.151073 277.486416 
C 207.744085 278.079428 208.548495 278.412626 209.387141 278.412626 
z
" clip-path="url(#p21b5a9d2eb)" style="fill: #e69f00; fill-opacity: 0.7; stroke: #ffffff; stroke-opacity: 0.7; stroke-width: 0.3"/>
    <path d="M 215.032969 254.038223 
C 215.871615 254.038223 216.676025 253.705026 217.269037 253.112014 
C 217.862049 252.519001 218.195246 251.714591 218.195246 250.875946 
C 218.195246 250.0373 217.862049 249.23289 217.269037 248.639878 
C 216.676025 248.046865 215.871615 247.713668 215.032969 247.713668 
C 214.194323 247.713668 213.389913 248.046865 212.796901 248.639878 
C 212.203889 249.23289 211.870691 250.0373 211.870691 250.875946 
C 211.870691 251.714591 212.203889 252.519001 212.796901 253.112014 
C 213.389913 253.705026 214.194323 254.038223 215.032969 254.038223 
z
" clip-path="url(#p21b5a9d2eb)" style="fill: #e69f00; fill-opacity: 0.7; stroke: #ffffff; stroke-opacity: 0.7; stroke-width: 0.3"/>
    <path d="M 202.474179 310.471627 
C 203.312825 310.471627 204.117235 310.138429 204.710247 309.545417 
C 205.303259 308.952405 205.636457 308.147995 205.636457 307.309349 
C 205.636457 306.470703 205.303259 305.666293 204.710247 305.073281 
C 204.117235 304.480269 203.312825 304.147071 202.474179 304.147071 
C 201.635533 304.147071 200.831123 304.480269 200.238111 305.073281 
C 199.645099 305.666293 199.311902 306.470703 199.311902 307.309349 
C 199.311902 308.147995 199.645099 308.952405 200.238111 309.545417 
C 200.831123 310.138429 201.635533 310.471627 202.474179 310.471627 
z
" clip-path="url(#p21b5a9d2eb)" style="fill: #e69f00; fill-opacity: 0.7; stroke: #ffffff; stroke-opacity: 0.7; stroke-width: 0.3"/>
    <path d="M 228.19392 287.590417 
C 229.032566 287.590417 229.836976 287.25722 230.429988 286.664207 
C 231.023 286.071195 231.356198 285.266785 231.356198 284.428139 
C 231.356198 283.589494 231.023 282.785084 230.429988 282.192071 
C 229.836976 281.599059 229.032566 281.265862 228.19392 281.265862 
C 227.355274 281.265862 226.550864 281.599059 225.957852 282.192071 
C 225.36484 282.785084 225.031643 283.589494 225.031643 284.428139 
C 225.031643 285.266785 225.36484 286.071195 225.957852 286.664207 
C 226.550864 287.25722 227.355274 287.590417 228.19392 287.590417 
z
" clip-path="url(#p21b5a9d2eb)" style="fill: #e69f00; fill-opacity: 0.7; stroke: #ffffff; stroke-opacity: 0.7; stroke-width: 0.3"/>
    <path d="M 299.260882 252.501682 
C 300.099528 252.501682 300.903938 252.168484 301.49695 251.575472 
C 302.089962 250.98246 302.423159 250.17805 302.423159 249.339404 
C 302.423159 248.500758 302.089962 247.696348 301.49695 247.103336 
C 300.903938 246.510324 300.099528 246.177126 299.260882 246.177126 
C 298.422236 246.177126 297.617826 246.510324 297.024814 247.103336 
C 296.431802 247.696348 296.098604 248.500758 296.098604 249.339404 
C 296.098604 250.17805 296.431802 250.98246 297.024814 251.575472 
C 297.617826 252.168484 298.422236 252.501682 299.260882 252.501682 
z
" clip-path="url(#p21b5a9d2eb)" style="fill: #e69f00; fill-opacity: 0.7; stroke: #ffffff; stroke-opacity: 0.7; stroke-width: 0.3"/>
    <path d="M 274.052514 274.794859 
C 274.89116 274.794859 275.69557 274.461661 276.288582 273.868649 
C 276.881594 273.275637 277.214791 272.471227 277.214791 271.632581 
C 277.214791 270.793935 276.881594 269.989525 276.288582 269.396513 
C 275.69557 268.803501 274.89116 268.470303 274.052514 268.470303 
C 273.213868 268.470303 272.409458 268.803501 271.816446 269.396513 
C 271.223434 269.989525 270.890236 270.793935 270.890236 271.632581 
C 270.890236 272.471227 271.223434 273.275637 271.816446 273.868649 
C 272.409458 274.461661 273.213868 274.794859 274.052514 274.794859 
z
" clip-path="url(#p21b5a9d2eb)" style="fill: #e69f00; fill-opacity: 0.7; stroke: #ffffff; stroke-opacity: 0.7; stroke-width: 0.3"/>
   </g>
   <g id="Path3DCollection_2">
    <path d="M 157.587142 278.05066 
C 158.425788 278.05066 159.230198 277.717463 159.82321 277.124451 
C 160.416223 276.531439 160.74942 275.727029 160.74942 274.888383 
C 160.74942 274.049737 160.416223 273.245327 159.82321 272.652315 
C 159.230198 272.059303 158.425788 271.726105 157.587142 271.726105 
C 156.748497 271.726105 155.944087 272.059303 155.351074 272.652315 
C 154.758062 273.245327 154.424865 274.049737 154.424865 274.888383 
C 154.424865 275.727029 154.758062 276.531439 155.351074 277.124451 
C 155.944087 277.717463 156.748497 278.05066 157.587142 278.05066 
z
" clip-path="url(#p21b5a9d2eb)" style="fill: #56b4e9; fill-opacity: 0.7; stroke: #ffffff; stroke-opacity: 0.7; stroke-width: 0.3"/>
    <path d="M 196.235031 265.381851 
C 197.073677 265.381851 197.878087 265.048653 198.471099 264.455641 
C 199.064111 263.862629 199.397309 263.058219 199.397309 262.219573 
C 199.397309 261.380927 199.064111 260.576517 198.471099 259.983505 
C 197.878087 259.390493 197.073677 259.057296 196.235031 259.057296 
C 195.396385 259.057296 194.591975 259.390493 193.998963 259.983505 
C 193.405951 260.576517 193.072754 261.380927 193.072754 262.219573 
C 193.072754 263.058219 193.405951 263.862629 193.998963 264.455641 
C 194.591975 265.048653 195.396385 265.381851 196.235031 265.381851 
z
" clip-path="url(#p21b5a9d2eb)" style="fill: #56b4e9; fill-opacity: 0.7; stroke: #ffffff; stroke-opacity: 0.7; stroke-width: 0.3"/>
    <path d="M 312.196139 171.283561 
C 313.034784 171.283561 313.839194 170.950364 314.432207 170.357352 
C 315.025219 169.764339 315.358416 168.95993 315.358416 168.121284 
C 315.358416 167.282638 315.025219 166.478228 314.432207 165.885216 
C 313.839194 165.292204 313.034784 164.959006 312.196139 164.959006 
C 311.357493 164.959006 310.553083 165.292204 309.960071 165.885216 
C 309.367058 166.478228 309.033861 167.282638 309.033861 168.121284 
C 309.033861 168.95993 309.367058 169.764339 309.960071 170.357352 
C 310.553083 170.950364 311.357493 171.283561 312.196139 171.283561 
z
" clip-path="url(#p21b5a9d2eb)" style="fill: #56b4e9; fill-opacity: 0.7; stroke: #ffffff; stroke-opacity: 0.7; stroke-width: 0.3"/>
    <path d="M 153.067266 283.983926 
C 153.905912 283.983926 154.710322 283.650729 155.303334 283.057717 
C 155.896346 282.464704 156.229543 281.660294 156.229543 280.821649 
C 156.229543 279.983003 155.896346 279.178593 155.303334 278.585581 
C 154.710322 277.992569 153.905912 277.659371 153.067266 277.659371 
C 152.22862 277.659371 151.42421 277.992569 150.831198 278.585581 
C 150.238186 279.178593 149.904988 279.983003 149.904988 280.821649 
C 149.904988 281.660294 150.238186 282.464704 150.831198 283.057717 
C 151.42421 283.650729 152.22862 283.983926 153.067266 283.983926 
z
" clip-path="url(#p21b5a9d2eb)" style="fill: #56b4e9; fill-opacity: 0.7; stroke: #ffffff; stroke-opacity: 0.7; stroke-width: 0.3"/>
    <path d="M 289.288723 177.369147 
C 290.127369 177.369147 290.931779 177.035949 291.524791 176.442937 
C 292.117803 175.849925 292.451001 175.045515 292.451001 174.206869 
C 292.451001 173.368223 292.117803 172.563813 291.524791 171.970801 
C 290.931779 171.377789 290.127369 171.044591 289.288723 171.044591 
C 288.450077 171.044591 287.645667 171.377789 287.052655 171.970801 
C 286.459643 172.563813 286.126446 173.368223 286.126446 174.206869 
C 286.126446 175.045515 286.459643 175.849925 287.052655 176.442937 
C 287.645667 177.035949 288.450077 177.369147 289.288723 177.369147 
z
" clip-path="url(#p21b5a9d2eb)" style="fill: #56b4e9; fill-opacity: 0.7; stroke: #ffffff; stroke-opacity: 0.7; stroke-width: 0.3"/>
    <path d="M 279.603782 226.047095 
C 280.442428 226.047095 281.246838 225.713898 281.83985 225.120886 
C 282.432862 224.527874 282.76606 223.723464 282.76606 222.884818 
C 282.76606 222.046172 282.432862 221.241762 281.83985 220.64875 
C 281.246838 220.055738 280.442428 219.72254 279.603782 219.72254 
C 278.765136 219.72254 277.960726 220.055738 277.367714 220.64875 
C 276.774702 221.241762 276.441504 222.046172 276.441504 222.884818 
C 276.441504 223.723464 276.774702 224.527874 277.367714 225.120886 
C 277.960726 225.713898 278.765136 226.047095 279.603782 226.047095 
z
" clip-path="url(#p21b5a9d2eb)" style="fill: #56b4e9; fill-opacity: 0.7; stroke: #ffffff; stroke-opacity: 0.7; stroke-width: 0.3"/>
    <path d="M 240.319757 232.564179 
C 241.158403 232.564179 241.962813 232.230982 242.555825 231.63797 
C 243.148837 231.044958 243.482035 230.240548 243.482035 229.401902 
C 243.482035 228.563256 243.148837 227.758846 242.555825 227.165834 
C 241.962813 226.572822 241.158403 226.239624 240.319757 226.239624 
C 239.481111 226.239624 238.676701 226.572822 238.083689 227.165834 
C 237.490677 227.758846 237.15748 228.563256 237.15748 229.401902 
C 237.15748 230.240548 237.490677 231.044958 238.083689 231.63797 
C 238.676701 232.230982 239.481111 232.564179 240.319757 232.564179 
z
" clip-path="url(#p21b5a9d2eb)" style="fill: #56b4e9; fill-opacity: 0.7; stroke: #ffffff; stroke-opacity: 0.7; stroke-width: 0.3"/>
    <path d="M 285.82134 211.895652 
C 286.659986 211.895652 287.464396 211.562455 288.057408 210.969443 
C 288.65042 210.376431 288.983618 209.572021 288.983618 208.733375 
C 288.983618 207.894729 288.65042 207.090319 288.057408 206.497307 
C 287.464396 205.904295 286.659986 205.571097 285.82134 205.571097 
C 284.982694 205.571097 284.178284 205.904295 283.585272 206.497307 
C 282.99226 207.090319 282.659063 207.894729 282.659063 208.733375 
C 282.659063 209.572021 282.99226 210.376431 283.585272 210.969443 
C 284.178284 211.562455 284.982694 211.895652 285.82134 211.895652 
z
" clip-path="url(#p21b5a9d2eb)" style="fill: #56b4e9; fill-opacity: 0.7; stroke: #ffffff; stroke-opacity: 0.7; stroke-width: 0.3"/>
    <path d="M 241.444212 245.464191 
C 242.282857 245.464191 243.087267 245.130994 243.680279 244.537982 
C 244.273292 243.94497 244.606489 243.14056 244.606489 242.301914 
C 244.606489 241.463268 244.273292 240.658858 243.680279 240.065846 
C 243.087267 239.472834 242.282857 239.139636 241.444212 239.139636 
C 240.605566 239.139636 239.801156 239.472834 239.208144 240.065846 
C 238.615131 240.658858 238.281934 241.463268 238.281934 242.301914 
C 238.281934 243.14056 238.615131 243.94497 239.208144 244.537982 
C 239.801156 245.130994 240.605566 245.464191 241.444212 245.464191 
z
" clip-path="url(#p21b5a9d2eb)" style="fill: #56b4e9; fill-opacity: 0.7; stroke: #ffffff; stroke-opacity: 0.7; stroke-width: 0.3"/>
    <path d="M 271.059923 208.618642 
C 271.898569 208.618642 272.702979 208.285445 273.295991 207.692433 
C 273.889003 207.09942 274.222201 206.295011 274.222201 205.456365 
C 274.222201 204.617719 273.889003 203.813309 273.295991 203.220297 
C 272.702979 202.627285 271.898569 202.294087 271.059923 202.294087 
C 270.221277 202.294087 269.416867 202.627285 268.823855 203.220297 
C 268.230843 203.813309 267.897646 204.617719 267.897646 205.456365 
C 267.897646 206.295011 268.230843 207.09942 268.823855 207.692433 
C 269.416867 208.285445 270.221277 208.618642 271.059923 208.618642 
z
" clip-path="url(#p21b5a9d2eb)" style="fill: #56b4e9; fill-opacity: 0.7; stroke: #ffffff; stroke-opacity: 0.7; stroke-width: 0.3"/>
    <path d="M 304.599699 209.780148 
C 305.438345 209.780148 306.242755 209.446951 306.835767 208.853939 
C 307.428779 208.260926 307.761977 207.456517 307.761977 206.617871 
C 307.761977 205.779225 307.428779 204.974815 306.835767 204.381803 
C 306.242755 203.788791 305.438345 203.455593 304.599699 203.455593 
C 303.761053 203.455593 302.956643 203.788791 302.363631 204.381803 
C 301.770619 204.974815 301.437422 205.779225 301.437422 206.617871 
C 301.437422 207.456517 301.770619 208.260926 302.363631 208.853939 
C 302.956643 209.446951 303.761053 209.780148 304.599699 209.780148 
z
" clip-path="url(#p21b5a9d2eb)" style="fill: #56b4e9; fill-opacity: 0.7; stroke: #ffffff; stroke-opacity: 0.7; stroke-width: 0.3"/>
    <path d="M 321.880363 208.696681 
C 322.719009 208.696681 323.523419 208.363484 324.116431 207.770471 
C 324.709443 207.177459 325.042641 206.373049 325.042641 205.534404 
C 325.042641 204.695758 324.709443 203.891348 324.116431 203.298336 
C 323.523419 202.705323 322.719009 202.372126 321.880363 202.372126 
C 321.041717 202.372126 320.237307 202.705323 319.644295 203.298336 
C 319.051283 203.891348 318.718085 204.695758 318.718085 205.534404 
C 318.718085 206.373049 319.051283 207.177459 319.644295 207.770471 
C 320.237307 208.363484 321.041717 208.696681 321.880363 208.696681 
z
" clip-path="url(#p21b5a9d2eb)" style="fill: #56b4e9; fill-opacity: 0.7; stroke: #ffffff; stroke-opacity: 0.7; stroke-width: 0.3"/>
    <path d="M 284.376311 245.340685 
C 285.214957 245.340685 286.019367 245.007488 286.612379 244.414476 
C 287.205391 243.821464 287.538589 243.017054 287.538589 242.178408 
C 287.538589 241.339762 287.205391 240.535352 286.612379 239.94234 
C 286.019367 239.349328 285.214957 239.01613 284.376311 239.01613 
C 283.537665 239.01613 282.733255 239.349328 282.140243 239.94234 
C 281.547231 240.535352 281.214033 241.339762 281.214033 242.178408 
C 281.214033 243.017054 281.547231 243.821464 282.140243 244.414476 
C 282.733255 245.007488 283.537665 245.340685 284.376311 245.340685 
z
" clip-path="url(#p21b5a9d2eb)" style="fill: #56b4e9; fill-opacity: 0.7; stroke: #ffffff; stroke-opacity: 0.7; stroke-width: 0.3"/>
    <path d="M 259.994772 292.178385 
C 260.833418 292.178385 261.637828 291.845187 262.23084 291.252175 
C 262.823853 290.659163 263.15705 289.854753 263.15705 289.016107 
C 263.15705 288.177461 262.823853 287.373051 262.23084 286.780039 
C 261.637828 286.187027 260.833418 285.853829 259.994772 285.853829 
C 259.156127 285.853829 258.351717 286.187027 257.758704 286.780039 
C 257.165692 287.373051 256.832495 288.177461 256.832495 289.016107 
C 256.832495 289.854753 257.165692 290.659163 257.758704 291.252175 
C 258.351717 291.845187 259.156127 292.178385 259.994772 292.178385 
z
" clip-path="url(#p21b5a9d2eb)" style="fill: #56b4e9; fill-opacity: 0.7; stroke: #ffffff; stroke-opacity: 0.7; stroke-width: 0.3"/>
   </g>
   <g id="Path3DCollection_3">
    <path d="M 131.023091 208.927008 
C 131.861736 208.927008 132.666146 208.593811 133.259159 208.000798 
C 133.852171 207.407786 134.185368 206.603376 134.185368 205.76473 
C 134.185368 204.926085 133.852171 204.121675 133.259159 203.528662 
C 132.666146 202.93565 131.861736 202.602453 131.023091 202.602453 
C 130.184445 202.602453 129.380035 202.93565 128.787023 203.528662 
C 128.19401 204.121675 127.860813 204.926085 127.860813 205.76473 
C 127.860813 206.603376 128.19401 207.407786 128.787023 208.000798 
C 129.380035 208.593811 130.184445 208.927008 131.023091 208.927008 
z
" clip-path="url(#p21b5a9d2eb)" style="fill: #009e73; fill-opacity: 0.7; stroke: #ffffff; stroke-opacity: 0.7; stroke-width: 0.3"/>
    <path d="M 155.319738 241.878392 
C 156.158384 241.878392 156.962794 241.545195 157.555806 240.952182 
C 158.148819 240.35917 158.482016 239.55476 158.482016 238.716115 
C 158.482016 237.877469 158.148819 237.073059 157.555806 236.480047 
C 156.962794 235.887034 156.158384 235.553837 155.319738 235.553837 
C 154.481093 235.553837 153.676683 235.887034 153.08367 236.480047 
C 152.490658 237.073059 152.157461 237.877469 152.157461 238.716115 
C 152.157461 239.55476 152.490658 240.35917 153.08367 240.952182 
C 153.676683 241.545195 154.481093 241.878392 155.319738 241.878392 
z
" clip-path="url(#p21b5a9d2eb)" style="fill: #009e73; fill-opacity: 0.7; stroke: #ffffff; stroke-opacity: 0.7; stroke-width: 0.3"/>
    <path d="M 264.611578 222.461858 
C 265.450224 222.461858 266.254634 222.12866 266.847646 221.535648 
C 267.440658 220.942636 267.773856 220.138226 267.773856 219.29958 
C 267.773856 218.460934 267.440658 217.656524 266.847646 217.063512 
C 266.254634 216.4705 265.450224 216.137303 264.611578 216.137303 
C 263.772932 216.137303 262.968522 216.4705 262.37551 217.063512 
C 261.782498 217.656524 261.4493 218.460934 261.4493 219.29958 
C 261.4493 220.138226 261.782498 220.942636 262.37551 221.535648 
C 262.968522 222.12866 263.772932 222.461858 264.611578 222.461858 
z
" clip-path="url(#p21b5a9d2eb)" style="fill: #009e73; fill-opacity: 0.7; stroke: #ffffff; stroke-opacity: 0.7; stroke-width: 0.3"/>
    <path d="M 213.337831 243.018109 
C 214.176477 243.018109 214.980887 242.684911 215.573899 242.091899 
C 216.166911 241.498887 216.500108 240.694477 216.500108 239.855831 
C 216.500108 239.017185 216.166911 238.212775 215.573899 237.619763 
C 214.980887 237.026751 214.176477 236.693553 213.337831 236.693553 
C 212.499185 236.693553 211.694775 237.026751 211.101763 237.619763 
C 210.508751 238.212775 210.175553 239.017185 210.175553 239.855831 
C 210.175553 240.694477 210.508751 241.498887 211.101763 242.091899 
C 211.694775 242.684911 212.499185 243.018109 213.337831 243.018109 
z
" clip-path="url(#p21b5a9d2eb)" style="fill: #009e73; fill-opacity: 0.7; stroke: #ffffff; stroke-opacity: 0.7; stroke-width: 0.3"/>
    <path d="M 233.447777 216.578032 
C 234.286422 216.578032 235.090832 216.244834 235.683845 215.651822 
C 236.276857 215.05881 236.610054 214.2544 236.610054 213.415754 
C 236.610054 212.577108 236.276857 211.772698 235.683845 211.179686 
C 235.090832 210.586674 234.286422 210.253477 233.447777 210.253477 
C 232.609131 210.253477 231.804721 210.586674 231.211709 211.179686 
C 230.618697 211.772698 230.285499 212.577108 230.285499 213.415754 
C 230.285499 214.2544 230.618697 215.05881 231.211709 215.651822 
C 231.804721 216.244834 232.609131 216.578032 233.447777 216.578032 
z
" clip-path="url(#p21b5a9d2eb)" style="fill: #009e73; fill-opacity: 0.7; stroke: #ffffff; stroke-opacity: 0.7; stroke-width: 0.3"/>
    <path d="M 269.850148 230.018173 
C 270.688794 230.018173 271.493204 229.684975 272.086216 229.091963 
C 272.679228 228.498951 273.012425 227.694541 273.012425 226.855895 
C 273.012425 226.017249 272.679228 225.212839 272.086216 224.619827 
C 271.493204 224.026815 270.688794 223.693617 269.850148 223.693617 
C 269.011502 223.693617 268.207092 224.026815 267.61408 224.619827 
C 267.021068 225.212839 266.68787 226.017249 266.68787 226.855895 
C 266.68787 227.694541 267.021068 228.498951 267.61408 229.091963 
C 268.207092 229.684975 269.011502 230.018173 269.850148 230.018173 
z
" clip-path="url(#p21b5a9d2eb)" style="fill: #009e73; fill-opacity: 0.7; stroke: #ffffff; stroke-opacity: 0.7; stroke-width: 0.3"/>
    <path d="M 278.474129 237.702031 
C 279.312775 237.702031 280.117185 237.368833 280.710197 236.775821 
C 281.303209 236.182809 281.636407 235.378399 281.636407 234.539753 
C 281.636407 233.701107 281.303209 232.896697 280.710197 232.303685 
C 280.117185 231.710673 279.312775 231.377476 278.474129 231.377476 
C 277.635483 231.377476 276.831073 231.710673 276.238061 232.303685 
C 275.645049 232.896697 275.311851 233.701107 275.311851 234.539753 
C 275.311851 235.378399 275.645049 236.182809 276.238061 236.775821 
C 276.831073 237.368833 277.635483 237.702031 278.474129 237.702031 
z
" clip-path="url(#p21b5a9d2eb)" style="fill: #009e73; fill-opacity: 0.7; stroke: #ffffff; stroke-opacity: 0.7; stroke-width: 0.3"/>
    <path d="M 228.84578 256.792483 
C 229.684426 256.792483 230.488836 256.459286 231.081848 255.866274 
C 231.674861 255.273262 232.008058 254.468852 232.008058 253.630206 
C 232.008058 252.79156 231.674861 251.98715 231.081848 251.394138 
C 230.488836 250.801126 229.684426 250.467928 228.84578 250.467928 
C 228.007135 250.467928 227.202725 250.801126 226.609712 251.394138 
C 226.0167 251.98715 225.683503 252.79156 225.683503 253.630206 
C 225.683503 254.468852 226.0167 255.273262 226.609712 255.866274 
C 227.202725 256.459286 228.007135 256.792483 228.84578 256.792483 
z
" clip-path="url(#p21b5a9d2eb)" style="fill: #009e73; fill-opacity: 0.7; stroke: #ffffff; stroke-opacity: 0.7; stroke-width: 0.3"/>
    <path d="M 302.904277 188.348472 
C 303.742922 188.348472 304.547332 188.015274 305.140345 187.422262 
C 305.733357 186.82925 306.066554 186.02484 306.066554 185.186194 
C 306.066554 184.347548 305.733357 183.543138 305.140345 182.950126 
C 304.547332 182.357114 303.742922 182.023917 302.904277 182.023917 
C 302.065631 182.023917 301.261221 182.357114 300.668209 182.950126 
C 300.075196 183.543138 299.741999 184.347548 299.741999 185.186194 
C 299.741999 186.02484 300.075196 186.82925 300.668209 187.422262 
C 301.261221 188.015274 302.065631 188.348472 302.904277 188.348472 
z
" clip-path="url(#p21b5a9d2eb)" style="fill: #009e73; fill-opacity: 0.7; stroke: #ffffff; stroke-opacity: 0.7; stroke-width: 0.3"/>
    <path d="M 255.241358 233.882895 
C 256.080003 233.882895 256.884413 233.549698 257.477426 232.956685 
C 258.070438 232.363673 258.403635 231.559263 258.403635 230.720617 
C 258.403635 229.881972 258.070438 229.077562 257.477426 228.48455 
C 256.884413 227.891537 256.080003 227.55834 255.241358 227.55834 
C 254.402712 227.55834 253.598302 227.891537 253.00529 228.48455 
C 252.412277 229.077562 252.07908 229.881972 252.07908 230.720617 
C 252.07908 231.559263 252.412277 232.363673 253.00529 232.956685 
C 253.598302 233.549698 254.402712 233.882895 255.241358 233.882895 
z
" clip-path="url(#p21b5a9d2eb)" style="fill: #009e73; fill-opacity: 0.7; stroke: #ffffff; stroke-opacity: 0.7; stroke-width: 0.3"/>
    <path d="M 378.884254 146.081198 
C 379.7229 146.081198 380.52731 145.748 381.120322 145.154988 
C 381.713334 144.561976 382.046532 143.757566 382.046532 142.91892 
C 382.046532 142.080275 381.713334 141.275865 381.120322 140.682852 
C 380.52731 140.08984 379.7229 139.756643 378.884254 139.756643 
C 378.045608 139.756643 377.241198 140.08984 376.648186 140.682852 
C 376.055174 141.275865 375.721976 142.080275 375.721976 142.91892 
C 375.721976 143.757566 376.055174 144.561976 376.648186 145.154988 
C 377.241198 145.748 378.045608 146.081198 378.884254 146.081198 
z
" clip-path="url(#p21b5a9d2eb)" style="fill: #009e73; fill-opacity: 0.7; stroke: #ffffff; stroke-opacity: 0.7; stroke-width: 0.3"/>
    <path d="M 240.680869 284.666648 
C 241.519515 284.666648 242.323925 284.333451 242.916937 283.740439 
C 243.509949 283.147427 243.843147 282.343017 243.843147 281.504371 
C 243.843147 280.665725 243.509949 279.861315 242.916937 279.268303 
C 242.323925 278.675291 241.519515 278.342093 240.680869 278.342093 
C 239.842223 278.342093 239.037813 278.675291 238.444801 279.268303 
C 237.851789 279.861315 237.518591 280.665725 237.518591 281.504371 
C 237.518591 282.343017 237.851789 283.147427 238.444801 283.740439 
C 239.037813 284.333451 239.842223 284.666648 240.680869 284.666648 
z
" clip-path="url(#p21b5a9d2eb)" style="fill: #009e73; fill-opacity: 0.7; stroke: #ffffff; stroke-opacity: 0.7; stroke-width: 0.3"/>
    <path d="M 268.961907 269.657891 
C 269.800553 269.657891 270.604963 269.324693 271.197975 268.731681 
C 271.790987 268.138669 272.124185 267.334259 272.124185 266.495613 
C 272.124185 265.656967 271.790987 264.852557 271.197975 264.259545 
C 270.604963 263.666533 269.800553 263.333335 268.961907 263.333335 
C 268.123261 263.333335 267.318851 263.666533 266.725839 264.259545 
C 266.132827 264.852557 265.79963 265.656967 265.79963 266.495613 
C 265.79963 267.334259 266.132827 268.138669 266.725839 268.731681 
C 267.318851 269.324693 268.123261 269.657891 268.961907 269.657891 
z
" clip-path="url(#p21b5a9d2eb)" style="fill: #009e73; fill-opacity: 0.7; stroke: #ffffff; stroke-opacity: 0.7; stroke-width: 0.3"/>
    <path d="M 279.364023 270.852648 
C 280.202669 270.852648 281.007079 270.519451 281.600091 269.926439 
C 282.193103 269.333427 282.526301 268.529017 282.526301 267.690371 
C 282.526301 266.851725 282.193103 266.047315 281.600091 265.454303 
C 281.007079 264.861291 280.202669 264.528093 279.364023 264.528093 
C 278.525377 264.528093 277.720967 264.861291 277.127955 265.454303 
C 276.534943 266.047315 276.201745 266.851725 276.201745 267.690371 
C 276.201745 268.529017 276.534943 269.333427 277.127955 269.926439 
C 277.720967 270.519451 278.525377 270.852648 279.364023 270.852648 
z
" clip-path="url(#p21b5a9d2eb)" style="fill: #009e73; fill-opacity: 0.7; stroke: #ffffff; stroke-opacity: 0.7; stroke-width: 0.3"/>
   </g>
   <g id="legend_1">
    <g id="Path3DCollection_4">
     <defs>
      <path id="m24832b13fd" d="M 0 3.162278 
C 0.838646 3.162278 1.643056 2.82908 2.236068 2.236068 
C 2.82908 1.643056 3.162278 0.838646 3.162278 0 
C 3.162278 -0.838646 2.82908 -1.643056 2.236068 -2.236068 
C 1.643056 -2.82908 0.838646 -3.162278 0 -3.162278 
C -0.838646 -3.162278 -1.643056 -2.82908 -2.236068 -2.236068 
C -2.82908 -1.643056 -3.162278 -0.838646 -3.162278 0 
C -3.162278 0.838646 -2.82908 1.643056 -2.236068 2.236068 
C -1.643056 2.82908 -0.838646 3.162278 0 3.162278 
z
" style="stroke: #ffffff; stroke-opacity: 0.7; stroke-width: 0.3"/>
     </defs>
     <g>
      <use xlink:href="#m24832b13fd" x="26.2" y="20.732812" style="fill: #e69f00; fill-opacity: 0.7; stroke: #ffffff; stroke-opacity: 0.7; stroke-width: 0.3"/>
     </g>
    </g>
    <g id="text_23">
     <text style="font-size: 10px; font-family: 'Arial'; text-anchor: start" x="44.2" y="23.357812" transform="rotate(-0 44.2 23.357812)">A</text>
    </g>
    <g id="Path3DCollection_5">
     <defs>
      <path id="m1c1652076f" d="M 0 3.162278 
C 0.838646 3.162278 1.643056 2.82908 2.236068 2.236068 
C 2.82908 1.643056 3.162278 0.838646 3.162278 0 
C 3.162278 -0.838646 2.82908 -1.643056 2.236068 -2.236068 
C 1.643056 -2.82908 0.838646 -3.162278 0 -3.162278 
C -0.838646 -3.162278 -1.643056 -2.82908 -2.236068 -2.236068 
C -2.82908 -1.643056 -3.162278 -0.838646 -3.162278 0 
C -3.162278 0.838646 -2.82908 1.643056 -2.236068 2.236068 
C -1.643056 2.82908 -0.838646 3.162278 0 3.162278 
z
" style="stroke: #ffffff; stroke-opacity: 0.7; stroke-width: 0.3"/>
     </defs>
     <g>
      <use xlink:href="#m1c1652076f" x="26.2" y="34.878125" style="fill: #56b4e9; fill-opacity: 0.7; stroke: #ffffff; stroke-opacity: 0.7; stroke-width: 0.3"/>
     </g>
    </g>
    <g id="text_24">
     <text style="font-size: 10px; font-family: 'Arial'; text-anchor: start" x="44.2" y="37.503125" transform="rotate(-0 44.2 37.503125)">B</text>
    </g>
    <g id="Path3DCollection_6">
     <defs>
      <path id="mbc5f3bc117" d="M 0 3.162278 
C 0.838646 3.162278 1.643056 2.82908 2.236068 2.236068 
C 2.82908 1.643056 3.162278 0.838646 3.162278 0 
C 3.162278 -0.838646 2.82908 -1.643056 2.236068 -2.236068 
C 1.643056 -2.82908 0.838646 -3.162278 0 -3.162278 
C -0.838646 -3.162278 -1.643056 -2.82908 -2.236068 -2.236068 
C -2.82908 -1.643056 -3.162278 -0.838646 -3.162278 0 
C -3.162278 0.838646 -2.82908 1.643056 -2.236068 2.236068 
C -1.643056 2.82908 -0.838646 3.162278 0 3.162278 
z
" style="stroke: #ffffff; stroke-opacity: 0.7; stroke-width: 0.3"/>
     </defs>
     <g>
      <use xlink:href="#mbc5f3bc117" x="26.2" y="49.023437" style="fill: #009e73; fill-opacity: 0.7; stroke: #ffffff; stroke-opacity: 0.7; stroke-width: 0.3"/>
     </g>
    </g>
    <g id="text_25">
     <text style="font-size: 10px; font-family: 'Arial'; text-anchor: start" x="44.2" y="51.648437" transform="rotate(-0 44.2 51.648437)">C</text>
    </g>
   </g>
  </g>
 </g>
 <defs>
  <clipPath id="p21b5a9d2eb">
   <rect x="7.2" y="7.2" width="443.52" height="443.52"/>
  </clipPath>
 </defs>
</svg>
