<?xml version="1.0" encoding="utf-8" standalone="no"?>
<!DOCTYPE svg PUBLIC "-//W3C//DTD SVG 1.1//EN"
  "http://www.w3.org/Graphics/SVG/1.1/DTD/svg11.dtd">
<svg xmlns:xlink="http://www.w3.org/1999/xlink" width="504pt" height="360pt" viewBox="0 0 456.879906 390.460313" xmlns="http://www.w3.org/2000/svg" version="1.1">
 <metadata>
  <rdf:RDF xmlns:dc="http://purl.org/dc/elements/1.1/" xmlns:cc="http://creativecommons.org/ns#" xmlns:rdf="http://www.w3.org/1999/02/22-rdf-syntax-ns#">
   <cc:Work>
    <dc:type rdf:resource="http://purl.org/dc/dcmitype/StillImage"/>
    <dc:date>2026-07-12T20:53:31.677512</dc:date>
    <dc:format>image/svg+xml</dc:format>
    <dc:creator>
     <cc:Agent>
      <dc:title>Matplotlib v3.9.2, https://matplotlib.org/</dc:title>
     </cc:Agent>
    </dc:creator>
   </cc:Work>
  </rdf:RDF>
 </metadata>
 <defs>
  <style type="text/css">*{stroke-linejoin: round; stroke-linecap: butt}</style>
 </defs>
 <g id="figure_1">
  <g id="patch_1">
   <path d="M 0 390.460313 
L 456.879906 390.460313 
L 456.879906 0 
L 0 0 
L 0 390.460313 
z
" style="fill: none"/>
  </g>
  <g id="axes_1">
   <g id="patch_2">
    <path d="M 344.63125 206.799219 
C 344.63125 188.598434 341.046092 170.574628 334.080953 153.759295 
C 327.115814 136.943962 316.906149 121.664118 304.03625 108.794219 
C 291.166351 95.92432 275.886507 85.714655 259.071174 78.749516 
C 242.255841 71.784377 224.232035 68.199219 206.03125 68.199219 
C 187.830465 68.199219 169.806659 71.784377 152.991326 78.749516 
C 136.175993 85.714655 120.896149 95.92432 108.02625 108.794219 
C 95.156351 121.664118 84.946686 136.943962 77.981547 153.759295 
C 71.016408 170.574628 67.43125 188.598434 67.43125 206.799219 
C 67.43125 225.000004 71.016408 243.02381 77.981547 259.839142 
C 84.946686 276.654475 95.156351 291.93432 108.02625 304.804219 
C 120.896149 317.674117 136.175993 327.883783 152.991326 334.848922 
C 169.806659 341.814061 187.830465 345.399219 206.03125 345.399219 
C 224.232035 345.399219 242.255841 341.814061 259.071174 334.848922 
C 275.886507 327.883783 291.166351 317.674117 304.03625 304.804219 
C 316.906149 291.93432 327.115814 276.654475 334.080953 259.839142 
C 341.046092 243.02381 344.63125 225.000004 344.63125 206.799219 
M 206.03125 206.799219 
C 206.03125 206.799219 206.03125 206.799219 206.03125 206.799219 
C 206.03125 206.799219 206.03125 206.799219 206.03125 206.799219 
C 206.03125 206.799219 206.03125 206.799219 206.03125 206.799219 
C 206.03125 206.799219 206.03125 206.799219 206.03125 206.799219 
C 206.03125 206.799219 206.03125 206.799219 206.03125 206.799219 
C 206.03125 206.799219 206.03125 206.799219 206.03125 206.799219 
C 206.03125 206.799219 206.03125 206.799219 206.03125 206.799219 
C 206.03125 206.799219 206.03125 206.799219 206.03125 206.799219 
C 206.03125 206.799219 206.03125 206.799219 206.03125 206.799219 
C 206.03125 206.799219 206.03125 206.799219 206.03125 206.799219 
C 206.03125 206.799219 206.03125 206.799219 206.03125 206.799219 
C 206.03125 206.799219 206.03125 206.799219 206.03125 206.799219 
C 206.03125 206.799219 206.03125 206.799219 206.03125 206.799219 
C 206.03125 206.799219 206.03125 206.799219 206.03125 206.799219 
C 206.03125 206.799219 206.03125 206.799219 206.03125 206.799219 
C 206.03125 206.799219 206.03125 206.799219 206.03125 206.799219 
L 206.03125 206.799219 
z
" style="fill: none"/>
   </g>
   <g id="matplotlib.axis_1">
    <g id="xtick_1">
     <g id="line2d_1">
      <path d="M 206.03125 206.799219 
L 206.03125 68.199219 
" clip-path="url(#pe45b1cf403)" style="fill: none; stroke: #b0b0b0; stroke-opacity: 0.35; stroke-width: 0.8; stroke-linecap: square"/>
     </g>
     <g id="text_1">
      <text style="font: 10px 'Arial'" transform="translate(170.186719 37.495938)">Marker1 Count /</text>
      <text style="font: 10px 'Arial'" transform="translate(189.086719 48.072812)">0.1mm³</text>
     </g>
    </g>
    <g id="xtick_2">
     <g id="line2d_2">
      <path d="M 206.03125 206.799219 
L 344.63125 206.799219 
" clip-path="url(#pe45b1cf403)" style="fill: none; stroke: #b0b0b0; stroke-opacity: 0.35; stroke-width: 0.8; stroke-linecap: square"/>
     </g>
     <g id="text_2">
      <text style="font: 10px 'Arial'" transform="translate(336.786719 204.095938)">Marker2 Count /</text>
      <text style="font: 10px 'Arial'" transform="translate(355.686719 214.672813)">0.1mm³</text>
     </g>
    </g>
    <g id="xtick_3">
     <g id="line2d_3">
      <path d="M 206.03125 206.799219 
L 206.03125 345.399219 
" clip-path="url(#pe45b1cf403)" style="fill: none; stroke: #b0b0b0; stroke-opacity: 0.35; stroke-width: 0.8; stroke-linecap: square"/>
     </g>
     <g id="text_3">
      <text style="font: 10px 'Arial'" transform="translate(170.186719 370.695938)">Marker3 Count /</text>
      <text style="font: 10px 'Arial'" transform="translate(189.086719 381.272813)">0.1mm³</text>
     </g>
    </g>
    <g id="xtick_4">
     <g id="line2d_4">
      <path d="M 206.03125 206.799219 
L 67.43125 206.799219 
" clip-path="url(#pe45b1cf403)" style="fill: none; stroke: #b0b0b0; stroke-opacity: 0.35; stroke-width: 0.8; stroke-linecap: square"/>
     </g>
     <g id="text_4">
      <text style="font: 10px 'Arial'" transform="translate(7.2 204.095938)">Marker1 Mean</text>
      <text style="font: 10px 'Arial'" transform="translate(24.700781 214.672813)">IntDen</text>
     </g>
    </g>
   </g>
   <g id="matplotlib.axis_2">
    <g id="ytick_1">
     <g id="line2d_5">
      <path d="M 206.03125 165.219219 
C 211.491486 165.219219 216.898627 166.294766 221.943227 168.384308 
C 226.987827 170.473849 231.57178 173.536749 235.43275 177.397719 
C 239.29372 181.258688 242.356619 185.842642 244.446161 190.887242 
C 246.535703 195.931842 247.61125 201.338983 247.61125 206.799219 
C 247.61125 212.259454 246.535703 217.666596 244.446161 222.711196 
C 242.356619 227.755796 239.29372 232.339749 235.43275 236.200719 
C 231.57178 240.061688 226.987827 243.124588 221.943227 245.21413 
C 216.898627 247.303671 211.491486 248.379219 206.03125 248.379219 
C 200.571014 248.379219 195.163873 247.303671 190.119273 245.21413 
C 185.074673 243.124588 180.49072 240.061688 176.62975 236.200719 
C 172.76878 232.339749 169.705881 227.755796 167.616339 222.711196 
C 165.526797 217.666596 164.45125 212.259454 164.45125 206.799219 
C 164.45125 201.338983 165.526797 195.931842 167.616339 190.887242 
C 169.705881 185.842642 172.76878 181.258688 176.62975 177.397719 
C 180.49072 173.536749 185.074673 170.473849 190.119273 168.384308 
C 195.163873 166.294766 200.571014 165.219219 206.03125 165.219219 
" clip-path="url(#pe45b1cf403)" style="fill: none; stroke: #b0b0b0; stroke-opacity: 0.35; stroke-width: 0.8; stroke-linecap: square"/>
     </g>
     <g id="text_5">
      <text style="fill: #808080; font: 8px 'Arial'; text-anchor: start" x="247.61125" y="205.209219" transform="rotate(-0 247.61125 205.209219)">0.30</text>
     </g>
    </g>
    <g id="ytick_2">
     <g id="line2d_6">
      <path d="M 206.03125 68.199219 
C 224.232035 68.199219 242.255841 71.784377 259.071174 78.749516 
C 275.886507 85.714655 291.166351 95.92432 304.03625 108.794219 
C 316.906149 121.664118 327.115814 136.943962 334.080953 153.759295 
C 341.046092 170.574628 344.63125 188.598434 344.63125 206.799219 
C 344.63125 225.000004 341.046092 243.02381 334.080953 259.839142 
C 327.115814 276.654475 316.906149 291.93432 304.03625 304.804219 
C 291.166351 317.674117 275.886507 327.883783 259.071174 334.848922 
C 242.255841 341.814061 224.232035 345.399219 206.03125 345.399219 
C 187.830465 345.399219 169.806659 341.814061 152.991326 334.848922 
C 136.175993 327.883783 120.896149 317.674117 108.02625 304.804219 
C 95.156351 291.93432 84.946686 276.654475 77.981547 259.839142 
C 71.016408 243.02381 67.43125 225.000004 67.43125 206.799219 
C 67.43125 188.598434 71.016408 170.574628 77.981547 153.759295 
C 84.946686 136.943962 95.156351 121.664118 108.02625 108.794219 
C 120.896149 95.92432 136.175993 85.714655 152.991326 78.749516 
C 169.806659 71.784377 187.830465 68.199219 206.03125 68.199219 
" clip-path="url(#pe45b1cf403)" style="fill: none; stroke: #b0b0b0; stroke-opacity: 0.35; stroke-width: 0.8; stroke-linecap: square"/>
     </g>
     <g id="text_6">
      <text style="fill: #808080; font: 8px 'Arial'; text-anchor: start" x="344.63125" y="205.209219" transform="rotate(-0 344.63125 205.209219)">1.00</text>
     </g>
    </g>
   </g>
   <g id="patch_3">
    <path d="M 206.03125 173.569732 
L 259.267452 206.799219 
L 206.03125 270.61952 
L 145.970682 206.799219 
z
" clip-path="url(#pe45b1cf403)" style="fill: #e69f00; opacity: 0.2; stroke: #e69f00; stroke-linejoin: miter"/>
   </g>
   <g id="patch_4">
    <path d="M 206.03125 146.852456 
L 241.448939 206.799219 
L 206.03125 320.545186 
L 91.054221 206.799219 
z
" clip-path="url(#pe45b1cf403)" style="fill: #56b4e9; opacity: 0.2; stroke: #56b4e9; stroke-linejoin: miter"/>
   </g>
   <g id="patch_5">
    <path d="M 206.03125 101.67864 
L 307.267423 206.799219 
L 206.03125 237.694337 
L 167.367933 206.799219 
z
" clip-path="url(#pe45b1cf403)" style="fill: #009e73; opacity: 0.2; stroke: #009e73; stroke-linejoin: miter"/>
   </g>
   <g id="patch_6">
    <path d="M 206.03125 68.199219 
C 187.830465 68.199219 169.806659 71.784377 152.991326 78.749516 
C 136.175993 85.714655 120.896149 95.92432 108.02625 108.794219 
C 95.156351 121.664118 84.946686 136.943962 77.981547 153.759295 
C 71.016408 170.574628 67.43125 188.598434 67.43125 206.799219 
C 67.43125 225.000004 71.016408 243.02381 77.981547 259.839142 
C 84.946686 276.654475 95.156351 291.93432 108.02625 304.804219 
C 120.896149 317.674117 136.175993 327.883783 152.991326 334.848922 
C 169.806659 341.814061 187.830465 345.399219 206.03125 345.399219 
C 224.232035 345.399219 242.255841 341.814061 259.071174 334.848922 
C 275.886507 327.883783 291.166351 317.674117 304.03625 304.804219 
C 316.906149 291.93432 327.115814 276.654475 334.080953 259.839142 
C 341.046092 243.02381 344.63125 225.000004 344.63125 206.799219 
C 344.63125 188.598434 341.046092 170.574628 334.080953 153.759295 
C 327.115814 136.943962 316.906149 121.664118 304.03625 108.794219 
C 291.166351 95.92432 275.886507 85.714655 259.071174 78.749516 
C 242.255841 71.784377 224.232035 68.199219 206.03125 68.199219 
" style="fill: none; stroke: #000000; stroke-width: 2; stroke-linejoin: miter; stroke-linecap: square"/>
   </g>
   <g id="line2d_7">
    <path d="M 206.03125 173.569732 
L 259.267452 206.799219 
L 206.03125 270.61952 
L 145.970682 206.799219 
L 206.03125 173.569732 
" clip-path="url(#pe45b1cf403)" style="fill: none; stroke: #e69f00; stroke-width: 2; stroke-linecap: square"/>
   </g>
   <g id="line2d_8">
    <path d="M 206.03125 146.852456 
L 241.448939 206.799219 
L 206.03125 320.545186 
L 91.054221 206.799219 
L 206.03125 146.852456 
" clip-path="url(#pe45b1cf403)" style="fill: none; stroke: #56b4e9; stroke-width: 2; stroke-linecap: square"/>
   </g>
   <g id="line2d_9">
    <path d="M 206.03125 101.67864 
L 307.267423 206.799219 
L 206.03125 237.694337 
L 167.367933 206.799219 
L 206.03125 101.67864 
" clip-path="url(#pe45b1cf403)" style="fill: none; stroke: #009e73; stroke-width: 2; stroke-linecap: square"/>
   </g>
   <g id="text_7">
    <text style="font: 700 14px 'Arial'; text-anchor: middle" x="206.03125" y="17.391562" transform="rotate(-0 206.03125 17.391562)">Radar mean (Combined)</text>
   </g>
   <g id="PathCollection_1">
    <defs>
     <path id="mad4f53d716" d="M 0 4.5 
C 1.193414 4.5 2.338109 4.025852 3.181981 3.181981 
C 4.025852 2.338109 4.5 1.193414 4.5 0 
C 4.5 -1.193414 4.025852 -2.338109 3.181981 -3.181981 
C 2.338109 -4.025852 1.193414 -4.5 0 -4.5 
C -1.193414 -4.5 -2.338109 -4.025852 -3.181981 -3.181981 
C -4.025852 -2.338109 -4.5 -1.193414 -4.5 0 
C -4.5 1.193414 -4.025852 2.338109 -3.181981 3.181981 
C -2.338109 4.025852 -1.193414 4.5 0 4.5 
z
" style="stroke: #000000; stroke-width: 0.4"/>
    </defs>
    <g clip-path="url(#pe45b1cf403)">
     <use xlink:href="#mad4f53d716" x="206.03125" y="173.569732" style="fill: #e69f00; stroke: #000000; stroke-width: 0.4"/>
     <use xlink:href="#mad4f53d716" x="259.267452" y="206.799219" style="fill: #e69f00; stroke: #000000; stroke-width: 0.4"/>
     <use xlink:href="#mad4f53d716" x="206.03125" y="270.61952" style="fill: #e69f00; stroke: #000000; stroke-width: 0.4"/>
     <use xlink:href="#mad4f53d716" x="145.970682" y="206.799219" style="fill: #e69f00; stroke: #000000; stroke-width: 0.4"/>
    </g>
   </g>
   <g id="PathCollection_2">
    <defs>
     <path id="m87fbc74891" d="M 0 4.5 
C 1.193414 4.5 2.338109 4.025852 3.181981 3.181981 
C 4.025852 2.338109 4.5 1.193414 4.5 0 
C 4.5 -1.193414 4.025852 -2.338109 3.181981 -3.181981 
C 2.338109 -4.025852 1.193414 -4.5 0 -4.5 
C -1.193414 -4.5 -2.338109 -4.025852 -3.181981 -3.181981 
C -4.025852 -2.338109 -4.5 -1.193414 -4.5 0 
C -4.5 1.193414 -4.025852 2.338109 -3.181981 3.181981 
C -2.338109 4.025852 -1.193414 4.5 0 4.5 
z
" style="stroke: #000000; stroke-width: 0.4"/>
    </defs>
    <g clip-path="url(#pe45b1cf403)">
     <use xlink:href="#m87fbc74891" x="206.03125" y="146.852456" style="fill: #56b4e9; stroke: #000000; stroke-width: 0.4"/>
     <use xlink:href="#m87fbc74891" x="241.448939" y="206.799219" style="fill: #56b4e9; stroke: #000000; stroke-width: 0.4"/>
     <use xlink:href="#m87fbc74891" x="206.03125" y="320.545186" style="fill: #56b4e9; stroke: #000000; stroke-width: 0.4"/>
     <use xlink:href="#m87fbc74891" x="91.054221" y="206.799219" style="fill: #56b4e9; stroke: #000000; stroke-width: 0.4"/>
    </g>
   </g>
   <g id="PathCollection_3">
    <defs>
     <path id="m1c4563fe09" d="M 0 4.5 
C 1.193414 4.5 2.338109 4.025852 3.181981 3.181981 
C 4.025852 2.338109 4.5 1.193414 4.5 0 
C 4.5 -1.193414 4.025852 -2.338109 3.181981 -3.181981 
C 2.338109 -4.025852 1.193414 -4.5 0 -4.5 
C -1.193414 -4.5 -2.338109 -4.025852 -3.181981 -3.181981 
C -4.025852 -2.338109 -4.5 -1.193414 -4.5 0 
C -4.5 1.193414 -4.025852 2.338109 -3.181981 3.181981 
C -2.338109 4.025852 -1.193414 4.5 0 4.5 
z
" style="stroke: #000000; stroke-width: 0.4"/>
    </defs>
    <g clip-path="url(#pe45b1cf403)">
     <use xlink:href="#m1c4563fe09" x="206.03125" y="101.67864" style="fill: #009e73; stroke: #000000; stroke-width: 0.4"/>
     <use xlink:href="#m1c4563fe09" x="307.267423" y="206.799219" style="fill: #009e73; stroke: #000000; stroke-width: 0.4"/>
     <use xlink:href="#m1c4563fe09" x="206.03125" y="237.694337" style="fill: #009e73; stroke: #000000; stroke-width: 0.4"/>
     <use xlink:href="#m1c4563fe09" x="167.367933" y="206.799219" style="fill: #009e73; stroke: #000000; stroke-width: 0.4"/>
    </g>
   </g>
   <g id="PathCollection_4">
    <defs>
     <path id="md01bb7a1d8" d="M -3.082207 3.082207 
L 3.082207 -3.082207 
M -3.082207 -3.082207 
L 3.082207 3.082207 
" style="stroke: #e69f00; stroke-opacity: 0.75"/>
    </defs>
    <g clip-path="url(#pe45b1cf403)">
     <use xlink:href="#md01bb7a1d8" x="206.03125" y="197.206179" style="fill: #e69f00; fill-opacity: 0.75; stroke: #e69f00; stroke-opacity: 0.75"/>
     <use xlink:href="#md01bb7a1d8" x="228.518378" y="206.799219" style="fill: #e69f00; fill-opacity: 0.75; stroke: #e69f00; stroke-opacity: 0.75"/>
     <use xlink:href="#md01bb7a1d8" x="206.03125" y="254.850903" style="fill: #e69f00; fill-opacity: 0.75; stroke: #e69f00; stroke-opacity: 0.75"/>
     <use xlink:href="#md01bb7a1d8" x="137.315213" y="206.799219" style="fill: #e69f00; fill-opacity: 0.75; stroke: #e69f00; stroke-opacity: 0.75"/>
    </g>
   </g>
   <g id="PathCollection_5">
    <g clip-path="url(#pe45b1cf403)">
     <use xlink:href="#md01bb7a1d8" x="206.03125" y="142.007881" style="fill: #e69f00; fill-opacity: 0.75; stroke: #e69f00; stroke-opacity: 0.75"/>
     <use xlink:href="#md01bb7a1d8" x="306.232405" y="206.799219" style="fill: #e69f00; fill-opacity: 0.75; stroke: #e69f00; stroke-opacity: 0.75"/>
     <use xlink:href="#md01bb7a1d8" x="206.03125" y="261.159261" style="fill: #e69f00; fill-opacity: 0.75; stroke: #e69f00; stroke-opacity: 0.75"/>
     <use xlink:href="#md01bb7a1d8" x="168.563524" y="206.799219" style="fill: #e69f00; fill-opacity: 0.75; stroke: #e69f00; stroke-opacity: 0.75"/>
    </g>
   </g>
   <g id="PathCollection_6">
    <g clip-path="url(#pe45b1cf403)">
     <use xlink:href="#md01bb7a1d8" x="206.03125" y="153.433438" style="fill: #e69f00; fill-opacity: 0.75; stroke: #e69f00; stroke-opacity: 0.75"/>
     <use xlink:href="#md01bb7a1d8" x="301.70025" y="206.799219" style="fill: #e69f00; fill-opacity: 0.75; stroke: #e69f00; stroke-opacity: 0.75"/>
     <use xlink:href="#md01bb7a1d8" x="206.03125" y="279.162367" style="fill: #e69f00; fill-opacity: 0.75; stroke: #e69f00; stroke-opacity: 0.75"/>
     <use xlink:href="#md01bb7a1d8" x="146.262162" y="206.799219" style="fill: #e69f00; fill-opacity: 0.75; stroke: #e69f00; stroke-opacity: 0.75"/>
    </g>
   </g>
   <g id="PathCollection_7">
    <g clip-path="url(#pe45b1cf403)">
     <use xlink:href="#md01bb7a1d8" x="206.03125" y="173.323648" style="fill: #e69f00; fill-opacity: 0.75; stroke: #e69f00; stroke-opacity: 0.75"/>
     <use xlink:href="#md01bb7a1d8" x="217.062478" y="206.799219" style="fill: #e69f00; fill-opacity: 0.75; stroke: #e69f00; stroke-opacity: 0.75"/>
     <use xlink:href="#md01bb7a1d8" x="206.03125" y="272.954803" style="fill: #e69f00; fill-opacity: 0.75; stroke: #e69f00; stroke-opacity: 0.75"/>
     <use xlink:href="#md01bb7a1d8" x="149.328572" y="206.799219" style="fill: #e69f00; fill-opacity: 0.75; stroke: #e69f00; stroke-opacity: 0.75"/>
    </g>
   </g>
   <g id="PathCollection_8">
    <g clip-path="url(#pe45b1cf403)">
     <use xlink:href="#md01bb7a1d8" x="206.03125" y="193.245506" style="fill: #e69f00; fill-opacity: 0.75; stroke: #e69f00; stroke-opacity: 0.75"/>
     <use xlink:href="#md01bb7a1d8" x="242.895006" y="206.799219" style="fill: #e69f00; fill-opacity: 0.75; stroke: #e69f00; stroke-opacity: 0.75"/>
     <use xlink:href="#md01bb7a1d8" x="206.03125" y="263.933768" style="fill: #e69f00; fill-opacity: 0.75; stroke: #e69f00; stroke-opacity: 0.75"/>
     <use xlink:href="#md01bb7a1d8" x="132.540973" y="206.799219" style="fill: #e69f00; fill-opacity: 0.75; stroke: #e69f00; stroke-opacity: 0.75"/>
    </g>
   </g>
   <g id="PathCollection_9">
    <g clip-path="url(#pe45b1cf403)">
     <use xlink:href="#md01bb7a1d8" x="206.03125" y="185.283774" style="fill: #e69f00; fill-opacity: 0.75; stroke: #e69f00; stroke-opacity: 0.75"/>
     <use xlink:href="#md01bb7a1d8" x="242.022641" y="206.799219" style="fill: #e69f00; fill-opacity: 0.75; stroke: #e69f00; stroke-opacity: 0.75"/>
     <use xlink:href="#md01bb7a1d8" x="206.03125" y="280.102959" style="fill: #e69f00; fill-opacity: 0.75; stroke: #e69f00; stroke-opacity: 0.75"/>
     <use xlink:href="#md01bb7a1d8" x="136.251607" y="206.799219" style="fill: #e69f00; fill-opacity: 0.75; stroke: #e69f00; stroke-opacity: 0.75"/>
    </g>
   </g>
   <g id="PathCollection_10">
    <g clip-path="url(#pe45b1cf403)">
     <use xlink:href="#md01bb7a1d8" x="206.03125" y="206.799219" style="fill: #e69f00; fill-opacity: 0.75; stroke: #e69f00; stroke-opacity: 0.75"/>
     <use xlink:href="#md01bb7a1d8" x="206.03125" y="206.799219" style="fill: #e69f00; fill-opacity: 0.75; stroke: #e69f00; stroke-opacity: 0.75"/>
     <use xlink:href="#md01bb7a1d8" x="206.03125" y="258.818385" style="fill: #e69f00; fill-opacity: 0.75; stroke: #e69f00; stroke-opacity: 0.75"/>
     <use xlink:href="#md01bb7a1d8" x="165.755828" y="206.799219" style="fill: #e69f00; fill-opacity: 0.75; stroke: #e69f00; stroke-opacity: 0.75"/>
    </g>
   </g>
   <g id="PathCollection_11">
    <g clip-path="url(#pe45b1cf403)">
     <use xlink:href="#md01bb7a1d8" x="206.03125" y="172.001408" style="fill: #e69f00; fill-opacity: 0.75; stroke: #e69f00; stroke-opacity: 0.75"/>
     <use xlink:href="#md01bb7a1d8" x="249.72188" y="206.799219" style="fill: #e69f00; fill-opacity: 0.75; stroke: #e69f00; stroke-opacity: 0.75"/>
     <use xlink:href="#md01bb7a1d8" x="206.03125" y="261.884086" style="fill: #e69f00; fill-opacity: 0.75; stroke: #e69f00; stroke-opacity: 0.75"/>
     <use xlink:href="#md01bb7a1d8" x="168.710247" y="206.799219" style="fill: #e69f00; fill-opacity: 0.75; stroke: #e69f00; stroke-opacity: 0.75"/>
    </g>
   </g>
   <g id="PathCollection_12">
    <g clip-path="url(#pe45b1cf403)">
     <use xlink:href="#md01bb7a1d8" x="206.03125" y="203.065966" style="fill: #e69f00; fill-opacity: 0.75; stroke: #e69f00; stroke-opacity: 0.75"/>
     <use xlink:href="#md01bb7a1d8" x="244.283954" y="206.799219" style="fill: #e69f00; fill-opacity: 0.75; stroke: #e69f00; stroke-opacity: 0.75"/>
     <use xlink:href="#md01bb7a1d8" x="206.03125" y="276.951752" style="fill: #e69f00; fill-opacity: 0.75; stroke: #e69f00; stroke-opacity: 0.75"/>
     <use xlink:href="#md01bb7a1d8" x="113.841403" y="206.799219" style="fill: #e69f00; fill-opacity: 0.75; stroke: #e69f00; stroke-opacity: 0.75"/>
    </g>
   </g>
   <g id="PathCollection_13">
    <g clip-path="url(#pe45b1cf403)">
     <use xlink:href="#md01bb7a1d8" x="206.03125" y="181.091882" style="fill: #e69f00; fill-opacity: 0.75; stroke: #e69f00; stroke-opacity: 0.75"/>
     <use xlink:href="#md01bb7a1d8" x="270.695285" y="206.799219" style="fill: #e69f00; fill-opacity: 0.75; stroke: #e69f00; stroke-opacity: 0.75"/>
     <use xlink:href="#md01bb7a1d8" x="206.03125" y="283.144562" style="fill: #e69f00; fill-opacity: 0.75; stroke: #e69f00; stroke-opacity: 0.75"/>
     <use xlink:href="#md01bb7a1d8" x="174.468537" y="206.799219" style="fill: #e69f00; fill-opacity: 0.75; stroke: #e69f00; stroke-opacity: 0.75"/>
    </g>
   </g>
   <g id="PathCollection_14">
    <g clip-path="url(#pe45b1cf403)">
     <use xlink:href="#md01bb7a1d8" x="206.03125" y="162.659648" style="fill: #e69f00; fill-opacity: 0.75; stroke: #e69f00; stroke-opacity: 0.75"/>
     <use xlink:href="#md01bb7a1d8" x="283.831659" y="206.799219" style="fill: #e69f00; fill-opacity: 0.75; stroke: #e69f00; stroke-opacity: 0.75"/>
     <use xlink:href="#md01bb7a1d8" x="206.03125" y="287.965653" style="fill: #e69f00; fill-opacity: 0.75; stroke: #e69f00; stroke-opacity: 0.75"/>
     <use xlink:href="#md01bb7a1d8" x="133.605057" y="206.799219" style="fill: #e69f00; fill-opacity: 0.75; stroke: #e69f00; stroke-opacity: 0.75"/>
    </g>
   </g>
   <g id="PathCollection_15">
    <g clip-path="url(#pe45b1cf403)">
     <use xlink:href="#md01bb7a1d8" x="206.03125" y="168.732308" style="fill: #e69f00; fill-opacity: 0.75; stroke: #e69f00; stroke-opacity: 0.75"/>
     <use xlink:href="#md01bb7a1d8" x="248.20752" y="206.799219" style="fill: #e69f00; fill-opacity: 0.75; stroke: #e69f00; stroke-opacity: 0.75"/>
     <use xlink:href="#md01bb7a1d8" x="206.03125" y="238.632506" style="fill: #e69f00; fill-opacity: 0.75; stroke: #e69f00; stroke-opacity: 0.75"/>
     <use xlink:href="#md01bb7a1d8" x="164.112455" y="206.799219" style="fill: #e69f00; fill-opacity: 0.75; stroke: #e69f00; stroke-opacity: 0.75"/>
    </g>
   </g>
   <g id="PathCollection_16">
    <g clip-path="url(#pe45b1cf403)">
     <use xlink:href="#md01bb7a1d8" x="206.03125" y="131.764046" style="fill: #e69f00; fill-opacity: 0.75; stroke: #e69f00; stroke-opacity: 0.75"/>
     <use xlink:href="#md01bb7a1d8" x="321.045664" y="206.799219" style="fill: #e69f00; fill-opacity: 0.75; stroke: #e69f00; stroke-opacity: 0.75"/>
     <use xlink:href="#md01bb7a1d8" x="206.03125" y="265.921321" style="fill: #e69f00; fill-opacity: 0.75; stroke: #e69f00; stroke-opacity: 0.75"/>
     <use xlink:href="#md01bb7a1d8" x="108.24298" y="206.799219" style="fill: #e69f00; fill-opacity: 0.75; stroke: #e69f00; stroke-opacity: 0.75"/>
    </g>
   </g>
   <g id="PathCollection_17">
    <g clip-path="url(#pe45b1cf403)">
     <use xlink:href="#md01bb7a1d8" x="206.03125" y="159.361346" style="fill: #e69f00; fill-opacity: 0.75; stroke: #e69f00; stroke-opacity: 0.75"/>
     <use xlink:href="#md01bb7a1d8" x="267.495963" y="206.799219" style="fill: #e69f00; fill-opacity: 0.75; stroke: #e69f00; stroke-opacity: 0.75"/>
     <use xlink:href="#md01bb7a1d8" x="206.03125" y="303.190958" style="fill: #e69f00; fill-opacity: 0.75; stroke: #e69f00; stroke-opacity: 0.75"/>
     <use xlink:href="#md01bb7a1d8" x="144.590989" y="206.799219" style="fill: #e69f00; fill-opacity: 0.75; stroke: #e69f00; stroke-opacity: 0.75"/>
    </g>
   </g>
   <g id="PathCollection_18">
    <defs>
     <path id="m77a2392a6a" d="M -3.082207 3.082207 
L 3.082207 -3.082207 
M -3.082207 -3.082207 
L 3.082207 3.082207 
" style="stroke: #56b4e9; stroke-opacity: 0.75"/>
    </defs>
    <g clip-path="url(#pe45b1cf403)">
     <use xlink:href="#m77a2392a6a" x="206.03125" y="155.150616" style="fill: #56b4e9; fill-opacity: 0.75; stroke: #56b4e9; stroke-opacity: 0.75"/>
     <use xlink:href="#m77a2392a6a" x="250.796667" y="206.799219" style="fill: #56b4e9; fill-opacity: 0.75; stroke: #56b4e9; stroke-opacity: 0.75"/>
     <use xlink:href="#m77a2392a6a" x="206.03125" y="321.192257" style="fill: #56b4e9; fill-opacity: 0.75; stroke: #56b4e9; stroke-opacity: 0.75"/>
     <use xlink:href="#m77a2392a6a" x="95.778154" y="206.799219" style="fill: #56b4e9; fill-opacity: 0.75; stroke: #56b4e9; stroke-opacity: 0.75"/>
    </g>
   </g>
   <g id="PathCollection_19">
    <g clip-path="url(#pe45b1cf403)">
     <use xlink:href="#m77a2392a6a" x="206.03125" y="158.028734" style="fill: #56b4e9; fill-opacity: 0.75; stroke: #56b4e9; stroke-opacity: 0.75"/>
     <use xlink:href="#m77a2392a6a" x="219.738763" y="206.799219" style="fill: #56b4e9; fill-opacity: 0.75; stroke: #56b4e9; stroke-opacity: 0.75"/>
     <use xlink:href="#m77a2392a6a" x="206.03125" y="323.425802" style="fill: #56b4e9; fill-opacity: 0.75; stroke: #56b4e9; stroke-opacity: 0.75"/>
     <use xlink:href="#m77a2392a6a" x="113.040334" y="206.799219" style="fill: #56b4e9; fill-opacity: 0.75; stroke: #56b4e9; stroke-opacity: 0.75"/>
    </g>
   </g>
   <g id="PathCollection_20">
    <g clip-path="url(#pe45b1cf403)">
     <use xlink:href="#m77a2392a6a" x="206.03125" y="136.257585" style="fill: #56b4e9; fill-opacity: 0.75; stroke: #56b4e9; stroke-opacity: 0.75"/>
     <use xlink:href="#m77a2392a6a" x="237.135854" y="206.799219" style="fill: #56b4e9; fill-opacity: 0.75; stroke: #56b4e9; stroke-opacity: 0.75"/>
     <use xlink:href="#m77a2392a6a" x="206.03125" y="283.335868" style="fill: #56b4e9; fill-opacity: 0.75; stroke: #56b4e9; stroke-opacity: 0.75"/>
     <use xlink:href="#m77a2392a6a" x="96.805811" y="206.799219" style="fill: #56b4e9; fill-opacity: 0.75; stroke: #56b4e9; stroke-opacity: 0.75"/>
    </g>
   </g>
   <g id="PathCollection_21">
    <g clip-path="url(#pe45b1cf403)">
     <use xlink:href="#m77a2392a6a" x="206.03125" y="152.968608" style="fill: #56b4e9; fill-opacity: 0.75; stroke: #56b4e9; stroke-opacity: 0.75"/>
     <use xlink:href="#m77a2392a6a" x="222.322611" y="206.799219" style="fill: #56b4e9; fill-opacity: 0.75; stroke: #56b4e9; stroke-opacity: 0.75"/>
     <use xlink:href="#m77a2392a6a" x="206.03125" y="325.045462" style="fill: #56b4e9; fill-opacity: 0.75; stroke: #56b4e9; stroke-opacity: 0.75"/>
     <use xlink:href="#m77a2392a6a" x="87.306919" y="206.799219" style="fill: #56b4e9; fill-opacity: 0.75; stroke: #56b4e9; stroke-opacity: 0.75"/>
    </g>
   </g>
   <g id="PathCollection_22">
    <g clip-path="url(#pe45b1cf403)">
     <use xlink:href="#m77a2392a6a" x="206.03125" y="104.619111" style="fill: #56b4e9; fill-opacity: 0.75; stroke: #56b4e9; stroke-opacity: 0.75"/>
     <use xlink:href="#m77a2392a6a" x="249.233886" y="206.799219" style="fill: #56b4e9; fill-opacity: 0.75; stroke: #56b4e9; stroke-opacity: 0.75"/>
     <use xlink:href="#m77a2392a6a" x="206.03125" y="325.046218" style="fill: #56b4e9; fill-opacity: 0.75; stroke: #56b4e9; stroke-opacity: 0.75"/>
     <use xlink:href="#m77a2392a6a" x="100.216995" y="206.799219" style="fill: #56b4e9; fill-opacity: 0.75; stroke: #56b4e9; stroke-opacity: 0.75"/>
    </g>
   </g>
   <g id="PathCollection_23">
    <g clip-path="url(#pe45b1cf403)">
     <use xlink:href="#m77a2392a6a" x="206.03125" y="145.671985" style="fill: #56b4e9; fill-opacity: 0.75; stroke: #56b4e9; stroke-opacity: 0.75"/>
     <use xlink:href="#m77a2392a6a" x="268.357655" y="206.799219" style="fill: #56b4e9; fill-opacity: 0.75; stroke: #56b4e9; stroke-opacity: 0.75"/>
     <use xlink:href="#m77a2392a6a" x="206.03125" y="306.500922" style="fill: #56b4e9; fill-opacity: 0.75; stroke: #56b4e9; stroke-opacity: 0.75"/>
     <use xlink:href="#m77a2392a6a" x="92.699282" y="206.799219" style="fill: #56b4e9; fill-opacity: 0.75; stroke: #56b4e9; stroke-opacity: 0.75"/>
    </g>
   </g>
   <g id="PathCollection_24">
    <g clip-path="url(#pe45b1cf403)">
     <use xlink:href="#m77a2392a6a" x="206.03125" y="144.441511" style="fill: #56b4e9; fill-opacity: 0.75; stroke: #56b4e9; stroke-opacity: 0.75"/>
     <use xlink:href="#m77a2392a6a" x="253.951822" y="206.799219" style="fill: #56b4e9; fill-opacity: 0.75; stroke: #56b4e9; stroke-opacity: 0.75"/>
     <use xlink:href="#m77a2392a6a" x="206.03125" y="345.399219" style="fill: #56b4e9; fill-opacity: 0.75; stroke: #56b4e9; stroke-opacity: 0.75"/>
     <use xlink:href="#m77a2392a6a" x="82.929713" y="206.799219" style="fill: #56b4e9; fill-opacity: 0.75; stroke: #56b4e9; stroke-opacity: 0.75"/>
    </g>
   </g>
   <g id="PathCollection_25">
    <g clip-path="url(#pe45b1cf403)">
     <use xlink:href="#m77a2392a6a" x="206.03125" y="172.375147" style="fill: #56b4e9; fill-opacity: 0.75; stroke: #56b4e9; stroke-opacity: 0.75"/>
     <use xlink:href="#m77a2392a6a" x="248.208963" y="206.799219" style="fill: #56b4e9; fill-opacity: 0.75; stroke: #56b4e9; stroke-opacity: 0.75"/>
     <use xlink:href="#m77a2392a6a" x="206.03125" y="326.911727" style="fill: #56b4e9; fill-opacity: 0.75; stroke: #56b4e9; stroke-opacity: 0.75"/>
     <use xlink:href="#m77a2392a6a" x="90.520287" y="206.799219" style="fill: #56b4e9; fill-opacity: 0.75; stroke: #56b4e9; stroke-opacity: 0.75"/>
    </g>
   </g>
   <g id="PathCollection_26">
    <g clip-path="url(#pe45b1cf403)">
     <use xlink:href="#m77a2392a6a" x="206.03125" y="131.547394" style="fill: #56b4e9; fill-opacity: 0.75; stroke: #56b4e9; stroke-opacity: 0.75"/>
     <use xlink:href="#m77a2392a6a" x="235.629453" y="206.799219" style="fill: #56b4e9; fill-opacity: 0.75; stroke: #56b4e9; stroke-opacity: 0.75"/>
     <use xlink:href="#m77a2392a6a" x="206.03125" y="327.674083" style="fill: #56b4e9; fill-opacity: 0.75; stroke: #56b4e9; stroke-opacity: 0.75"/>
     <use xlink:href="#m77a2392a6a" x="98.82506" y="206.799219" style="fill: #56b4e9; fill-opacity: 0.75; stroke: #56b4e9; stroke-opacity: 0.75"/>
    </g>
   </g>
   <g id="PathCollection_27">
    <g clip-path="url(#pe45b1cf403)">
     <use xlink:href="#m77a2392a6a" x="206.03125" y="168.654014" style="fill: #56b4e9; fill-opacity: 0.75; stroke: #56b4e9; stroke-opacity: 0.75"/>
     <use xlink:href="#m77a2392a6a" x="233.404265" y="206.799219" style="fill: #56b4e9; fill-opacity: 0.75; stroke: #56b4e9; stroke-opacity: 0.75"/>
     <use xlink:href="#m77a2392a6a" x="206.03125" y="342.570563" style="fill: #56b4e9; fill-opacity: 0.75; stroke: #56b4e9; stroke-opacity: 0.75"/>
     <use xlink:href="#m77a2392a6a" x="75.098449" y="206.799219" style="fill: #56b4e9; fill-opacity: 0.75; stroke: #56b4e9; stroke-opacity: 0.75"/>
    </g>
   </g>
   <g id="PathCollection_28">
    <g clip-path="url(#pe45b1cf403)">
     <use xlink:href="#m77a2392a6a" x="206.03125" y="140.314553" style="fill: #56b4e9; fill-opacity: 0.75; stroke: #56b4e9; stroke-opacity: 0.75"/>
     <use xlink:href="#m77a2392a6a" x="239.7026" y="206.799219" style="fill: #56b4e9; fill-opacity: 0.75; stroke: #56b4e9; stroke-opacity: 0.75"/>
     <use xlink:href="#m77a2392a6a" x="206.03125" y="311.181984" style="fill: #56b4e9; fill-opacity: 0.75; stroke: #56b4e9; stroke-opacity: 0.75"/>
     <use xlink:href="#m77a2392a6a" x="92.694251" y="206.799219" style="fill: #56b4e9; fill-opacity: 0.75; stroke: #56b4e9; stroke-opacity: 0.75"/>
    </g>
   </g>
   <g id="PathCollection_29">
    <g clip-path="url(#pe45b1cf403)">
     <use xlink:href="#m77a2392a6a" x="206.03125" y="155.208381" style="fill: #56b4e9; fill-opacity: 0.75; stroke: #56b4e9; stroke-opacity: 0.75"/>
     <use xlink:href="#m77a2392a6a" x="243.471282" y="206.799219" style="fill: #56b4e9; fill-opacity: 0.75; stroke: #56b4e9; stroke-opacity: 0.75"/>
     <use xlink:href="#m77a2392a6a" x="206.03125" y="313.704852" style="fill: #56b4e9; fill-opacity: 0.75; stroke: #56b4e9; stroke-opacity: 0.75"/>
     <use xlink:href="#m77a2392a6a" x="67.43125" y="206.799219" style="fill: #56b4e9; fill-opacity: 0.75; stroke: #56b4e9; stroke-opacity: 0.75"/>
    </g>
   </g>
   <g id="PathCollection_30">
    <g clip-path="url(#pe45b1cf403)">
     <use xlink:href="#m77a2392a6a" x="206.03125" y="141.101999" style="fill: #56b4e9; fill-opacity: 0.75; stroke: #56b4e9; stroke-opacity: 0.75"/>
     <use xlink:href="#m77a2392a6a" x="239.467999" y="206.799219" style="fill: #56b4e9; fill-opacity: 0.75; stroke: #56b4e9; stroke-opacity: 0.75"/>
     <use xlink:href="#m77a2392a6a" x="206.03125" y="317.262563" style="fill: #56b4e9; fill-opacity: 0.75; stroke: #56b4e9; stroke-opacity: 0.75"/>
     <use xlink:href="#m77a2392a6a" x="74.356683" y="206.799219" style="fill: #56b4e9; fill-opacity: 0.75; stroke: #56b4e9; stroke-opacity: 0.75"/>
    </g>
   </g>
   <g id="PathCollection_31">
    <g clip-path="url(#pe45b1cf403)">
     <use xlink:href="#m77a2392a6a" x="206.03125" y="149.594741" style="fill: #56b4e9; fill-opacity: 0.75; stroke: #56b4e9; stroke-opacity: 0.75"/>
     <use xlink:href="#m77a2392a6a" x="238.863326" y="206.799219" style="fill: #56b4e9; fill-opacity: 0.75; stroke: #56b4e9; stroke-opacity: 0.75"/>
     <use xlink:href="#m77a2392a6a" x="206.03125" y="318.381082" style="fill: #56b4e9; fill-opacity: 0.75; stroke: #56b4e9; stroke-opacity: 0.75"/>
     <use xlink:href="#m77a2392a6a" x="107.055911" y="206.799219" style="fill: #56b4e9; fill-opacity: 0.75; stroke: #56b4e9; stroke-opacity: 0.75"/>
    </g>
   </g>
   <g id="PathCollection_32">
    <defs>
     <path id="m451eac094f" d="M -3.082207 3.082207 
L 3.082207 -3.082207 
M -3.082207 -3.082207 
L 3.082207 3.082207 
" style="stroke: #009e73; stroke-opacity: 0.75"/>
    </defs>
    <g clip-path="url(#pe45b1cf403)">
     <use xlink:href="#m451eac094f" x="206.03125" y="119.460862" style="fill: #009e73; fill-opacity: 0.75; stroke: #009e73; stroke-opacity: 0.75"/>
     <use xlink:href="#m451eac094f" x="339.007984" y="206.799219" style="fill: #009e73; fill-opacity: 0.75; stroke: #009e73; stroke-opacity: 0.75"/>
     <use xlink:href="#m451eac094f" x="206.03125" y="249.75921" style="fill: #009e73; fill-opacity: 0.75; stroke: #009e73; stroke-opacity: 0.75"/>
     <use xlink:href="#m451eac094f" x="170.008957" y="206.799219" style="fill: #009e73; fill-opacity: 0.75; stroke: #009e73; stroke-opacity: 0.75"/>
    </g>
   </g>
   <g id="PathCollection_33">
    <g clip-path="url(#pe45b1cf403)">
     <use xlink:href="#m451eac094f" x="206.03125" y="68.199219" style="fill: #009e73; fill-opacity: 0.75; stroke: #009e73; stroke-opacity: 0.75"/>
     <use xlink:href="#m451eac094f" x="273.510813" y="206.799219" style="fill: #009e73; fill-opacity: 0.75; stroke: #009e73; stroke-opacity: 0.75"/>
     <use xlink:href="#m451eac094f" x="206.03125" y="217.592941" style="fill: #009e73; fill-opacity: 0.75; stroke: #009e73; stroke-opacity: 0.75"/>
     <use xlink:href="#m451eac094f" x="206.03125" y="206.799219" style="fill: #009e73; fill-opacity: 0.75; stroke: #009e73; stroke-opacity: 0.75"/>
    </g>
   </g>
   <g id="PathCollection_34">
    <g clip-path="url(#pe45b1cf403)">
     <use xlink:href="#m451eac094f" x="206.03125" y="101.96916" style="fill: #009e73; fill-opacity: 0.75; stroke: #009e73; stroke-opacity: 0.75"/>
     <use xlink:href="#m451eac094f" x="322.708975" y="206.799219" style="fill: #009e73; fill-opacity: 0.75; stroke: #009e73; stroke-opacity: 0.75"/>
     <use xlink:href="#m451eac094f" x="206.03125" y="237.672927" style="fill: #009e73; fill-opacity: 0.75; stroke: #009e73; stroke-opacity: 0.75"/>
     <use xlink:href="#m451eac094f" x="120.464634" y="206.799219" style="fill: #009e73; fill-opacity: 0.75; stroke: #009e73; stroke-opacity: 0.75"/>
    </g>
   </g>
   <g id="PathCollection_35">
    <g clip-path="url(#pe45b1cf403)">
     <use xlink:href="#m451eac094f" x="206.03125" y="71.124178" style="fill: #009e73; fill-opacity: 0.75; stroke: #009e73; stroke-opacity: 0.75"/>
     <use xlink:href="#m451eac094f" x="264.593614" y="206.799219" style="fill: #009e73; fill-opacity: 0.75; stroke: #009e73; stroke-opacity: 0.75"/>
     <use xlink:href="#m451eac094f" x="206.03125" y="231.744498" style="fill: #009e73; fill-opacity: 0.75; stroke: #009e73; stroke-opacity: 0.75"/>
     <use xlink:href="#m451eac094f" x="173.695664" y="206.799219" style="fill: #009e73; fill-opacity: 0.75; stroke: #009e73; stroke-opacity: 0.75"/>
    </g>
   </g>
   <g id="PathCollection_36">
    <g clip-path="url(#pe45b1cf403)">
     <use xlink:href="#m451eac094f" x="206.03125" y="110.083024" style="fill: #009e73; fill-opacity: 0.75; stroke: #009e73; stroke-opacity: 0.75"/>
     <use xlink:href="#m451eac094f" x="282.68817" y="206.799219" style="fill: #009e73; fill-opacity: 0.75; stroke: #009e73; stroke-opacity: 0.75"/>
     <use xlink:href="#m451eac094f" x="206.03125" y="262.858506" style="fill: #009e73; fill-opacity: 0.75; stroke: #009e73; stroke-opacity: 0.75"/>
     <use xlink:href="#m451eac094f" x="135.911337" y="206.799219" style="fill: #009e73; fill-opacity: 0.75; stroke: #009e73; stroke-opacity: 0.75"/>
    </g>
   </g>
   <g id="PathCollection_37">
    <g clip-path="url(#pe45b1cf403)">
     <use xlink:href="#m451eac094f" x="206.03125" y="132.138791" style="fill: #009e73; fill-opacity: 0.75; stroke: #009e73; stroke-opacity: 0.75"/>
     <use xlink:href="#m451eac094f" x="332.951767" y="206.799219" style="fill: #009e73; fill-opacity: 0.75; stroke: #009e73; stroke-opacity: 0.75"/>
     <use xlink:href="#m451eac094f" x="206.03125" y="206.799219" style="fill: #009e73; fill-opacity: 0.75; stroke: #009e73; stroke-opacity: 0.75"/>
     <use xlink:href="#m451eac094f" x="184.598295" y="206.799219" style="fill: #009e73; fill-opacity: 0.75; stroke: #009e73; stroke-opacity: 0.75"/>
    </g>
   </g>
   <g id="PathCollection_38">
    <g clip-path="url(#pe45b1cf403)">
     <use xlink:href="#m451eac094f" x="206.03125" y="125.737445" style="fill: #009e73; fill-opacity: 0.75; stroke: #009e73; stroke-opacity: 0.75"/>
     <use xlink:href="#m451eac094f" x="344.63125" y="206.799219" style="fill: #009e73; fill-opacity: 0.75; stroke: #009e73; stroke-opacity: 0.75"/>
     <use xlink:href="#m451eac094f" x="206.03125" y="251.580889" style="fill: #009e73; fill-opacity: 0.75; stroke: #009e73; stroke-opacity: 0.75"/>
     <use xlink:href="#m451eac094f" x="187.096532" y="206.799219" style="fill: #009e73; fill-opacity: 0.75; stroke: #009e73; stroke-opacity: 0.75"/>
    </g>
   </g>
   <g id="PathCollection_39">
    <g clip-path="url(#pe45b1cf403)">
     <use xlink:href="#m451eac094f" x="206.03125" y="106.798943" style="fill: #009e73; fill-opacity: 0.75; stroke: #009e73; stroke-opacity: 0.75"/>
     <use xlink:href="#m451eac094f" x="328.286504" y="206.799219" style="fill: #009e73; fill-opacity: 0.75; stroke: #009e73; stroke-opacity: 0.75"/>
     <use xlink:href="#m451eac094f" x="206.03125" y="235.201142" style="fill: #009e73; fill-opacity: 0.75; stroke: #009e73; stroke-opacity: 0.75"/>
     <use xlink:href="#m451eac094f" x="174.724458" y="206.799219" style="fill: #009e73; fill-opacity: 0.75; stroke: #009e73; stroke-opacity: 0.75"/>
    </g>
   </g>
   <g id="PathCollection_40">
    <g clip-path="url(#pe45b1cf403)">
     <use xlink:href="#m451eac094f" x="206.03125" y="82.752898" style="fill: #009e73; fill-opacity: 0.75; stroke: #009e73; stroke-opacity: 0.75"/>
     <use xlink:href="#m451eac094f" x="272.980495" y="206.799219" style="fill: #009e73; fill-opacity: 0.75; stroke: #009e73; stroke-opacity: 0.75"/>
     <use xlink:href="#m451eac094f" x="206.03125" y="214.331473" style="fill: #009e73; fill-opacity: 0.75; stroke: #009e73; stroke-opacity: 0.75"/>
     <use xlink:href="#m451eac094f" x="138.292307" y="206.799219" style="fill: #009e73; fill-opacity: 0.75; stroke: #009e73; stroke-opacity: 0.75"/>
    </g>
   </g>
   <g id="PathCollection_41">
    <g clip-path="url(#pe45b1cf403)">
     <use xlink:href="#m451eac094f" x="206.03125" y="93.636706" style="fill: #009e73; fill-opacity: 0.75; stroke: #009e73; stroke-opacity: 0.75"/>
     <use xlink:href="#m451eac094f" x="293.82972" y="206.799219" style="fill: #009e73; fill-opacity: 0.75; stroke: #009e73; stroke-opacity: 0.75"/>
     <use xlink:href="#m451eac094f" x="206.03125" y="224.10674" style="fill: #009e73; fill-opacity: 0.75; stroke: #009e73; stroke-opacity: 0.75"/>
     <use xlink:href="#m451eac094f" x="132.225115" y="206.799219" style="fill: #009e73; fill-opacity: 0.75; stroke: #009e73; stroke-opacity: 0.75"/>
    </g>
   </g>
   <g id="PathCollection_42">
    <g clip-path="url(#pe45b1cf403)">
     <use xlink:href="#m451eac094f" x="206.03125" y="95.784276" style="fill: #009e73; fill-opacity: 0.75; stroke: #009e73; stroke-opacity: 0.75"/>
     <use xlink:href="#m451eac094f" x="304.956758" y="206.799219" style="fill: #009e73; fill-opacity: 0.75; stroke: #009e73; stroke-opacity: 0.75"/>
     <use xlink:href="#m451eac094f" x="206.03125" y="274.727185" style="fill: #009e73; fill-opacity: 0.75; stroke: #009e73; stroke-opacity: 0.75"/>
     <use xlink:href="#m451eac094f" x="172.853632" y="206.799219" style="fill: #009e73; fill-opacity: 0.75; stroke: #009e73; stroke-opacity: 0.75"/>
    </g>
   </g>
   <g id="PathCollection_43">
    <g clip-path="url(#pe45b1cf403)">
     <use xlink:href="#m451eac094f" x="206.03125" y="110.102261" style="fill: #009e73; fill-opacity: 0.75; stroke: #009e73; stroke-opacity: 0.75"/>
     <use xlink:href="#m451eac094f" x="319.261887" y="206.799219" style="fill: #009e73; fill-opacity: 0.75; stroke: #009e73; stroke-opacity: 0.75"/>
     <use xlink:href="#m451eac094f" x="206.03125" y="255.620442" style="fill: #009e73; fill-opacity: 0.75; stroke: #009e73; stroke-opacity: 0.75"/>
     <use xlink:href="#m451eac094f" x="193.375511" y="206.799219" style="fill: #009e73; fill-opacity: 0.75; stroke: #009e73; stroke-opacity: 0.75"/>
    </g>
   </g>
   <g id="PathCollection_44">
    <g clip-path="url(#pe45b1cf403)">
     <use xlink:href="#m451eac094f" x="206.03125" y="109.628754" style="fill: #009e73; fill-opacity: 0.75; stroke: #009e73; stroke-opacity: 0.75"/>
     <use xlink:href="#m451eac094f" x="333.614745" y="206.799219" style="fill: #009e73; fill-opacity: 0.75; stroke: #009e73; stroke-opacity: 0.75"/>
     <use xlink:href="#m451eac094f" x="206.03125" y="236.094007" style="fill: #009e73; fill-opacity: 0.75; stroke: #009e73; stroke-opacity: 0.75"/>
     <use xlink:href="#m451eac094f" x="177.53086" y="206.799219" style="fill: #009e73; fill-opacity: 0.75; stroke: #009e73; stroke-opacity: 0.75"/>
    </g>
   </g>
   <g id="PathCollection_45">
    <g clip-path="url(#pe45b1cf403)">
     <use xlink:href="#m451eac094f" x="206.03125" y="96.084442" style="fill: #009e73; fill-opacity: 0.75; stroke: #009e73; stroke-opacity: 0.75"/>
     <use xlink:href="#m451eac094f" x="288.721246" y="206.799219" style="fill: #009e73; fill-opacity: 0.75; stroke: #009e73; stroke-opacity: 0.75"/>
     <use xlink:href="#m451eac094f" x="206.03125" y="229.631539" style="fill: #009e73; fill-opacity: 0.75; stroke: #009e73; stroke-opacity: 0.75"/>
     <use xlink:href="#m451eac094f" x="176.342518" y="206.799219" style="fill: #009e73; fill-opacity: 0.75; stroke: #009e73; stroke-opacity: 0.75"/>
    </g>
   </g>
   <g id="legend_1">
    <g id="text_8">
     <text style="font: 15px 'Arial'; text-anchor: start" x="380.30725" y="178.85" transform="rotate(-0 380.30725 178.85)">Condition</text>
    </g>
    <g id="line2d_10">
     <path d="M 385.577172 194.817969 
L 400.577172 194.817969 
L 415.577172 194.817969 
" style="fill: none; stroke: #e69f00; stroke-width: 2; stroke-linecap: square"/>
    </g>
    <g id="text_9">
     <text style="font: 15px 'Arial'; text-anchor: start" x="427.577172" y="200.067969" transform="rotate(-0 427.577172 200.067969)">A</text>
    </g>
    <g id="line2d_11">
     <path d="M 385.577172 216.035938 
L 400.577172 216.035938 
L 415.577172 216.035938 
" style="fill: none; stroke: #56b4e9; stroke-width: 2; stroke-linecap: square"/>
    </g>
    <g id="text_10">
     <text style="font: 15px 'Arial'; text-anchor: start" x="427.577172" y="221.285938" transform="rotate(-0 427.577172 221.285938)">B</text>
    </g>
    <g id="line2d_12">
     <path d="M 385.577172 237.253906 
L 400.577172 237.253906 
L 415.577172 237.253906 
" style="fill: none; stroke: #009e73; stroke-width: 2; stroke-linecap: square"/>
    </g>
    <g id="text_11">
     <text style="font: 15px 'Arial'; text-anchor: start" x="427.577172" y="242.503906" transform="rotate(-0 427.577172 242.503906)">C</text>
    </g>
   </g>
  </g>
 </g>
 <defs>
  <clipPath id="pe45b1cf403">
   <path d="M 344.63125 206.799219 
C 344.63125 188.598434 341.046092 170.574628 334.080953 153.759295 
C 327.115814 136.943962 316.906149 121.664118 304.03625 108.794219 
C 291.166351 95.92432 275.886507 85.714655 259.071174 78.749516 
C 242.255841 71.784377 224.232035 68.199219 206.03125 68.199219 
C 187.830465 68.199219 169.806659 71.784377 152.991326 78.749516 
C 136.175993 85.714655 120.896149 95.92432 108.02625 108.794219 
C 95.156351 121.664118 84.946686 136.943962 77.981547 153.759295 
C 71.016408 170.574628 67.43125 188.598434 67.43125 206.799219 
C 67.43125 225.000004 71.016408 243.02381 77.981547 259.839142 
C 84.946686 276.654475 95.156351 291.93432 108.02625 304.804219 
C 120.896149 317.674117 136.175993 327.883783 152.991326 334.848922 
C 169.806659 341.814061 187.830465 345.399219 206.03125 345.399219 
C 224.232035 345.399219 242.255841 341.814061 259.071174 334.848922 
C 275.886507 327.883783 291.166351 317.674117 304.03625 304.804219 
C 316.906149 291.93432 327.115814 276.654475 334.080953 259.839142 
C 341.046092 243.02381 344.63125 225.000004 344.63125 206.799219 
M 206.03125 206.799219 
C 206.03125 206.799219 206.03125 206.799219 206.03125 206.799219 
C 206.03125 206.799219 206.03125 206.799219 206.03125 206.799219 
C 206.03125 206.799219 206.03125 206.799219 206.03125 206.799219 
C 206.03125 206.799219 206.03125 206.799219 206.03125 206.799219 
C 206.03125 206.799219 206.03125 206.799219 206.03125 206.799219 
C 206.03125 206.799219 206.03125 206.799219 206.03125 206.799219 
C 206.03125 206.799219 206.03125 206.799219 206.03125 206.799219 
C 206.03125 206.799219 206.03125 206.799219 206.03125 206.799219 
C 206.03125 206.799219 206.03125 206.799219 206.03125 206.799219 
C 206.03125 206.799219 206.03125 206.799219 206.03125 206.799219 
C 206.03125 206.799219 206.03125 206.799219 206.03125 206.799219 
C 206.03125 206.799219 206.03125 206.799219 206.03125 206.799219 
C 206.03125 206.799219 206.03125 206.799219 206.03125 206.799219 
C 206.03125 206.799219 206.03125 206.799219 206.03125 206.799219 
C 206.03125 206.799219 206.03125 206.799219 206.03125 206.799219 
C 206.03125 206.799219 206.03125 206.799219 206.03125 206.799219 
z
"/>
  </clipPath>
 </defs>
</svg>
