<?xml version="1.0" encoding="utf-8" standalone="no"?>
<!DOCTYPE svg PUBLIC "-//W3C//DTD SVG 1.1//EN"
  "http://www.w3.org/Graphics/SVG/1.1/DTD/svg11.dtd">
<svg xmlns:xlink="http://www.w3.org/1999/xlink" width="504pt" height="360pt" viewBox="0 0 512.397316 368.39952" xmlns="http://www.w3.org/2000/svg" version="1.1">
 <metadata>
  <rdf:RDF xmlns:dc="http://purl.org/dc/elements/1.1/" xmlns:cc="http://creativecommons.org/ns#" xmlns:rdf="http://www.w3.org/1999/02/22-rdf-syntax-ns#">
   <cc:Work>
    <dc:type rdf:resource="http://purl.org/dc/dcmitype/StillImage"/>
    <dc:date>2026-07-12T20:53:43.577179</dc:date>
    <dc:format>image/svg+xml</dc:format>
    <dc:creator>
     <cc:Agent>
      <dc:title>Matplotlib v3.9.2, https://matplotlib.org/</dc:title>
     </cc:Agent>
    </dc:creator>
   </cc:Work>
  </rdf:RDF>
 </metadata>
 <defs>
  <style type="text/css">*{stroke-linejoin: round; stroke-linecap: butt}</style>
 </defs>
 <g id="figure_1">
  <g id="patch_1">
   <path d="M 0 368.39952 
L 512.397316 368.39952 
L 512.397316 0 
L 0 0 
L 0 368.39952 
z
" style="fill: none"/>
  </g>
  <g id="axes_1">
   <g id="patch_2">
    <path d="M 68.0325 304.320145 
L 497.327677 304.320145 
L 497.327677 27.759375 
L 68.0325 27.759375 
L 68.0325 304.320145 
z
" style="fill: none"/>
   </g>
   <g id="patch_3">
    <path d="M 282.680089 304.320145 
L 477.81426 304.320145 
L 477.81426 27.759375 
L 282.680089 27.759375 
z
" clip-path="url(#p6b10788e21)" style="fill: #0b1e3b; opacity: 0.06; stroke: #0b1e3b; stroke-linejoin: miter"/>
   </g>
   <g id="matplotlib.axis_1">
    <g id="xtick_1">
     <g id="line2d_1">
      <defs>
       <path id="m531f8e0352" d="M 0 0 
L 0 11 
" style="stroke: #000000; stroke-width: 2"/>
      </defs>
      <g>
       <use xlink:href="#m531f8e0352" x="87.545917" y="304.320145" style="stroke: #000000; stroke-width: 2"/>
      </g>
     </g>
     <g id="text_1">
      <text style="font: 20px 'Arial'; text-anchor: middle" x="87.545917" y="333.13577" transform="rotate(-0 87.545917 333.13577)">0</text>
     </g>
    </g>
    <g id="xtick_2">
     <g id="line2d_2">
      <g>
       <use xlink:href="#m531f8e0352" x="168.851822" y="304.320145" style="stroke: #000000; stroke-width: 2"/>
      </g>
     </g>
     <g id="text_2">
      <text style="font: 20px 'Arial'; text-anchor: middle" x="168.851822" y="333.13577" transform="rotate(-0 168.851822 333.13577)">5</text>
     </g>
    </g>
    <g id="xtick_3">
     <g id="line2d_3">
      <g>
       <use xlink:href="#m531f8e0352" x="250.157727" y="304.320145" style="stroke: #000000; stroke-width: 2"/>
      </g>
     </g>
     <g id="text_3">
      <text style="font: 20px 'Arial'; text-anchor: middle" x="250.157727" y="333.13577" transform="rotate(-0 250.157727 333.13577)">10</text>
     </g>
    </g>
    <g id="xtick_4">
     <g id="line2d_4">
      <g>
       <use xlink:href="#m531f8e0352" x="331.463631" y="304.320145" style="stroke: #000000; stroke-width: 2"/>
      </g>
     </g>
     <g id="text_4">
      <text style="font: 20px 'Arial'; text-anchor: middle" x="331.463631" y="333.13577" transform="rotate(-0 331.463631 333.13577)">15</text>
     </g>
    </g>
    <g id="xtick_5">
     <g id="line2d_5">
      <g>
       <use xlink:href="#m531f8e0352" x="412.769536" y="304.320145" style="stroke: #000000; stroke-width: 2"/>
      </g>
     </g>
     <g id="text_5">
      <text style="font: 20px 'Arial'; text-anchor: middle" x="412.769536" y="333.13577" transform="rotate(-0 412.769536 333.13577)">20</text>
     </g>
    </g>
    <g id="xtick_6">
     <g id="line2d_6">
      <g>
       <use xlink:href="#m531f8e0352" x="494.075441" y="304.320145" style="stroke: #000000; stroke-width: 2"/>
      </g>
     </g>
     <g id="text_6">
      <text style="font: 20px 'Arial'; text-anchor: middle" x="494.075441" y="333.13577" transform="rotate(-0 494.075441 333.13577)">25</text>
     </g>
    </g>
    <g id="text_7">
     <text style="font: 700 22px 'Arial'; text-anchor: middle" x="282.680089" y="356.857957" transform="rotate(-0 282.680089 356.857957)">ZT</text>
    </g>
   </g>
   <g id="matplotlib.axis_2">
    <g id="ytick_1">
     <g id="line2d_7">
      <defs>
       <path id="me798e090c0" d="M 0 0 
L -11 0 
" style="stroke: #000000; stroke-width: 2"/>
      </defs>
      <g>
       <use xlink:href="#me798e090c0" x="68.0325" y="253.777091" style="stroke: #000000; stroke-width: 2"/>
      </g>
     </g>
     <g id="text_8">
      <text style="font: 20px 'Arial'; text-anchor: end" x="53.5325" y="260.934904" transform="rotate(-0 53.5325 260.934904)">5</text>
     </g>
    </g>
    <g id="ytick_2">
     <g id="line2d_8">
      <g>
       <use xlink:href="#me798e090c0" x="68.0325" y="169.827781" style="stroke: #000000; stroke-width: 2"/>
      </g>
     </g>
     <g id="text_9">
      <text style="font: 20px 'Arial'; text-anchor: end" x="53.5325" y="176.985594" transform="rotate(-0 53.5325 176.985594)">10</text>
     </g>
    </g>
    <g id="ytick_3">
     <g id="line2d_9">
      <g>
       <use xlink:href="#me798e090c0" x="68.0325" y="85.878471" style="stroke: #000000; stroke-width: 2"/>
      </g>
     </g>
     <g id="text_10">
      <text style="font: 20px 'Arial'; text-anchor: end" x="53.5325" y="93.036283" transform="rotate(-0 53.5325 93.036283)">15</text>
     </g>
    </g>
    <g id="text_11">
     <text style="font: 700 22px 'Arial'; text-anchor: middle" x="22.947188" y="166.03976" transform="rotate(-90 22.947188 166.03976)">Response</text>
    </g>
   </g>
   <g id="line2d_10">
    <path d="M 87.545917 167.667107 
L 117.566559 128.607903 
L 133.229502 111.340252 
L 146.281955 99.666155 
L 158.029163 91.731909 
L 168.471125 86.96702 
L 178.913088 84.497285 
L 188.049805 84.275387 
L 197.186522 85.869824 
L 207.628484 89.870171 
L 218.070447 96.083817 
L 229.817654 105.49934 
L 242.870107 118.573267 
L 259.838296 138.746337 
L 287.248447 175.25885 
L 313.353353 208.909047 
L 329.016296 226.046838 
L 342.068749 237.580975 
L 353.815957 245.369947 
L 364.257919 249.994669 
L 374.699882 252.317959 
L 383.836599 252.409811 
L 392.973316 250.686491 
L 403.415278 246.543842 
L 413.857241 240.197057 
L 425.604448 230.647367 
L 438.656901 217.449324 
L 455.62509 197.162676 
L 477.81426 167.667107 
L 477.81426 167.667107 
" clip-path="url(#p6b10788e21)" style="fill: none; stroke: #1f77b4; stroke-width: 2.6; stroke-linecap: square"/>
   </g>
   <g id="line2d_11">
    <path d="M 87.545917 274.423753 
L 97.987879 262.239255 
L 109.735087 245.309755 
L 124.092785 220.848321 
L 143.671465 183.074533 
L 184.134069 104.067033 
L 198.491767 80.657706 
L 210.238975 64.833987 
L 220.680937 53.783689 
L 229.817654 46.702543 
L 238.954371 42.19895 
L 246.785843 40.46554 
L 254.617315 40.725769 
L 262.448786 42.975505 
L 270.280258 47.179032 
L 279.416975 54.461809 
L 289.858938 65.724368 
L 301.606145 81.756601 
L 314.658598 103.066841 
L 331.626787 134.756229 
L 385.141844 238.063799 
L 398.194297 257.971868 
L 409.941505 272.452372 
L 420.383467 282.151195 
L 429.520184 287.959267 
L 437.351656 290.844941 
L 445.183128 291.749201 
L 453.014599 290.657689 
L 460.846071 287.587734 
L 469.982788 281.572325 
L 477.81426 274.423753 
L 477.81426 274.423753 
" clip-path="url(#p6b10788e21)" style="fill: none; stroke: #ff7f0e; stroke-width: 2.6; stroke-linecap: square"/>
   </g>
   <g id="line2d_12">
    <path d="M 87.545917 214.142269 
L 101.903615 223.655096 
L 114.956068 229.924209 
L 126.703276 233.388916 
L 138.450484 234.66044 
L 150.197691 233.693437 
L 161.944899 230.522391 
L 173.692107 225.260389 
L 186.744559 217.191948 
L 202.407503 204.916509 
L 221.986182 186.738912 
L 275.501239 135.2737 
L 291.164183 123.709417 
L 304.216636 116.374976 
L 315.963844 111.855264 
L 327.711051 109.476521 
L 339.458259 109.323577 
L 351.205466 111.401887 
L 362.952674 115.637334 
L 376.005127 122.687188 
L 390.362825 132.927447 
L 407.331014 147.65193 
L 433.43592 173.388507 
L 463.456562 202.381847 
L 477.81426 214.142269 
L 477.81426 214.142269 
" clip-path="url(#p6b10788e21)" style="fill: none; stroke: #2ca02c; stroke-width: 2.6; stroke-linecap: square"/>
   </g>
   <g id="patch_4">
    <path d="M 68.0325 304.320145 
L 68.0325 27.759375 
" style="fill: none; stroke: #000000; stroke-width: 2; stroke-linejoin: miter; stroke-linecap: square"/>
   </g>
   <g id="patch_5">
    <path d="M 68.0325 304.320145 
L 497.327677 304.320145 
" style="fill: none; stroke: #000000; stroke-width: 2; stroke-linejoin: miter; stroke-linecap: square"/>
   </g>
   <g id="LineCollection_1">
    <path d="M 87.545917 170.78814 
L 87.545917 163.467274 
" clip-path="url(#p6b10788e21)" style="fill: none; stroke: #1f77b4; stroke-width: 2"/>
    <path d="M 152.590641 95.693183 
L 152.590641 84.531221 
" clip-path="url(#p6b10788e21)" style="fill: none; stroke: #1f77b4; stroke-width: 2"/>
    <path d="M 217.635365 112.345134 
L 217.635365 94.878935 
" clip-path="url(#p6b10788e21)" style="fill: none; stroke: #1f77b4; stroke-width: 2"/>
    <path d="M 282.680089 165.934886 
L 282.680089 161.843632 
" clip-path="url(#p6b10788e21)" style="fill: none; stroke: #1f77b4; stroke-width: 2"/>
    <path d="M 347.724812 247.709547 
L 347.724812 234.957889 
" clip-path="url(#p6b10788e21)" style="fill: none; stroke: #1f77b4; stroke-width: 2"/>
    <path d="M 412.769536 251.581153 
L 412.769536 236.70322 
" clip-path="url(#p6b10788e21)" style="fill: none; stroke: #1f77b4; stroke-width: 2"/>
   </g>
   <g id="line2d_13">
    <defs>
     <path id="me653959ee0" d="M 4 0 
L -4 -0 
" style="stroke: #1f77b4"/>
    </defs>
    <g clip-path="url(#p6b10788e21)">
     <use xlink:href="#me653959ee0" x="87.545917" y="170.78814" style="fill: #1f77b4; stroke: #1f77b4"/>
     <use xlink:href="#me653959ee0" x="152.590641" y="95.693183" style="fill: #1f77b4; stroke: #1f77b4"/>
     <use xlink:href="#me653959ee0" x="217.635365" y="112.345134" style="fill: #1f77b4; stroke: #1f77b4"/>
     <use xlink:href="#me653959ee0" x="282.680089" y="165.934886" style="fill: #1f77b4; stroke: #1f77b4"/>
     <use xlink:href="#me653959ee0" x="347.724812" y="247.709547" style="fill: #1f77b4; stroke: #1f77b4"/>
     <use xlink:href="#me653959ee0" x="412.769536" y="251.581153" style="fill: #1f77b4; stroke: #1f77b4"/>
    </g>
   </g>
   <g id="line2d_14">
    <g clip-path="url(#p6b10788e21)">
     <use xlink:href="#me653959ee0" x="87.545917" y="163.467274" style="fill: #1f77b4; stroke: #1f77b4"/>
     <use xlink:href="#me653959ee0" x="152.590641" y="84.531221" style="fill: #1f77b4; stroke: #1f77b4"/>
     <use xlink:href="#me653959ee0" x="217.635365" y="94.878935" style="fill: #1f77b4; stroke: #1f77b4"/>
     <use xlink:href="#me653959ee0" x="282.680089" y="161.843632" style="fill: #1f77b4; stroke: #1f77b4"/>
     <use xlink:href="#me653959ee0" x="347.724812" y="234.957889" style="fill: #1f77b4; stroke: #1f77b4"/>
     <use xlink:href="#me653959ee0" x="412.769536" y="236.70322" style="fill: #1f77b4; stroke: #1f77b4"/>
    </g>
   </g>
   <g id="LineCollection_2">
    <path d="M 87.545917 286.356734 
L 87.545917 271.373085 
" clip-path="url(#p6b10788e21)" style="fill: none; stroke: #ff7f0e; stroke-width: 2"/>
    <path d="M 152.590641 168.996857 
L 152.590641 154.776466 
" clip-path="url(#p6b10788e21)" style="fill: none; stroke: #ff7f0e; stroke-width: 2"/>
    <path d="M 217.635365 58.676387 
L 217.635365 52.388022 
" clip-path="url(#p6b10788e21)" style="fill: none; stroke: #ff7f0e; stroke-width: 2"/>
    <path d="M 282.680089 65.033191 
L 282.680089 58.792317 
" clip-path="url(#p6b10788e21)" style="fill: none; stroke: #ff7f0e; stroke-width: 2"/>
    <path d="M 347.724812 169.010246 
L 347.724812 158.991894 
" clip-path="url(#p6b10788e21)" style="fill: none; stroke: #ff7f0e; stroke-width: 2"/>
    <path d="M 412.769536 280.218523 
L 412.769536 267.868699 
" clip-path="url(#p6b10788e21)" style="fill: none; stroke: #ff7f0e; stroke-width: 2"/>
   </g>
   <g id="line2d_15">
    <defs>
     <path id="m251a4b153c" d="M 4 0 
L -4 -0 
" style="stroke: #ff7f0e"/>
    </defs>
    <g clip-path="url(#p6b10788e21)">
     <use xlink:href="#m251a4b153c" x="87.545917" y="286.356734" style="fill: #ff7f0e; stroke: #ff7f0e"/>
     <use xlink:href="#m251a4b153c" x="152.590641" y="168.996857" style="fill: #ff7f0e; stroke: #ff7f0e"/>
     <use xlink:href="#m251a4b153c" x="217.635365" y="58.676387" style="fill: #ff7f0e; stroke: #ff7f0e"/>
     <use xlink:href="#m251a4b153c" x="282.680089" y="65.033191" style="fill: #ff7f0e; stroke: #ff7f0e"/>
     <use xlink:href="#m251a4b153c" x="347.724812" y="169.010246" style="fill: #ff7f0e; stroke: #ff7f0e"/>
     <use xlink:href="#m251a4b153c" x="412.769536" y="280.218523" style="fill: #ff7f0e; stroke: #ff7f0e"/>
    </g>
   </g>
   <g id="line2d_16">
    <g clip-path="url(#p6b10788e21)">
     <use xlink:href="#m251a4b153c" x="87.545917" y="271.373085" style="fill: #ff7f0e; stroke: #ff7f0e"/>
     <use xlink:href="#m251a4b153c" x="152.590641" y="154.776466" style="fill: #ff7f0e; stroke: #ff7f0e"/>
     <use xlink:href="#m251a4b153c" x="217.635365" y="52.388022" style="fill: #ff7f0e; stroke: #ff7f0e"/>
     <use xlink:href="#m251a4b153c" x="282.680089" y="58.792317" style="fill: #ff7f0e; stroke: #ff7f0e"/>
     <use xlink:href="#m251a4b153c" x="347.724812" y="158.991894" style="fill: #ff7f0e; stroke: #ff7f0e"/>
     <use xlink:href="#m251a4b153c" x="412.769536" y="267.868699" style="fill: #ff7f0e; stroke: #ff7f0e"/>
    </g>
   </g>
   <g id="LineCollection_3">
    <path d="M 87.545917 213.468567 
L 87.545917 197.256504 
" clip-path="url(#p6b10788e21)" style="fill: none; stroke: #2ca02c; stroke-width: 2"/>
    <path d="M 152.590641 247.781941 
L 152.590641 238.809454 
" clip-path="url(#p6b10788e21)" style="fill: none; stroke: #2ca02c; stroke-width: 2"/>
    <path d="M 217.635365 192.476376 
L 217.635365 178.060079 
" clip-path="url(#p6b10788e21)" style="fill: none; stroke: #2ca02c; stroke-width: 2"/>
    <path d="M 282.680089 136.905264 
L 282.680089 122.454604 
" clip-path="url(#p6b10788e21)" style="fill: none; stroke: #2ca02c; stroke-width: 2"/>
    <path d="M 347.724812 117.49414 
L 347.724812 106.118805 
" clip-path="url(#p6b10788e21)" style="fill: none; stroke: #2ca02c; stroke-width: 2"/>
    <path d="M 412.769536 162.405713 
L 412.769536 149.448832 
" clip-path="url(#p6b10788e21)" style="fill: none; stroke: #2ca02c; stroke-width: 2"/>
   </g>
   <g id="line2d_17">
    <defs>
     <path id="m80115c0f30" d="M 4 0 
L -4 -0 
" style="stroke: #2ca02c"/>
    </defs>
    <g clip-path="url(#p6b10788e21)">
     <use xlink:href="#m80115c0f30" x="87.545917" y="213.468567" style="fill: #2ca02c; stroke: #2ca02c"/>
     <use xlink:href="#m80115c0f30" x="152.590641" y="247.781941" style="fill: #2ca02c; stroke: #2ca02c"/>
     <use xlink:href="#m80115c0f30" x="217.635365" y="192.476376" style="fill: #2ca02c; stroke: #2ca02c"/>
     <use xlink:href="#m80115c0f30" x="282.680089" y="136.905264" style="fill: #2ca02c; stroke: #2ca02c"/>
     <use xlink:href="#m80115c0f30" x="347.724812" y="117.49414" style="fill: #2ca02c; stroke: #2ca02c"/>
     <use xlink:href="#m80115c0f30" x="412.769536" y="162.405713" style="fill: #2ca02c; stroke: #2ca02c"/>
    </g>
   </g>
   <g id="line2d_18">
    <g clip-path="url(#p6b10788e21)">
     <use xlink:href="#m80115c0f30" x="87.545917" y="197.256504" style="fill: #2ca02c; stroke: #2ca02c"/>
     <use xlink:href="#m80115c0f30" x="152.590641" y="238.809454" style="fill: #2ca02c; stroke: #2ca02c"/>
     <use xlink:href="#m80115c0f30" x="217.635365" y="178.060079" style="fill: #2ca02c; stroke: #2ca02c"/>
     <use xlink:href="#m80115c0f30" x="282.680089" y="122.454604" style="fill: #2ca02c; stroke: #2ca02c"/>
     <use xlink:href="#m80115c0f30" x="347.724812" y="106.118805" style="fill: #2ca02c; stroke: #2ca02c"/>
     <use xlink:href="#m80115c0f30" x="412.769536" y="149.448832" style="fill: #2ca02c; stroke: #2ca02c"/>
    </g>
   </g>
   <g id="text_12">
    <text style="font: 700 20px 'Arial'; text-anchor: middle" x="282.680089" y="21.759375" transform="rotate(-0 282.680089 21.759375)">Cosinor rhythm — Response</text>
   </g>
   <g id="line2d_19">
    <defs>
     <path id="m421cc5a0d8" d="M 0 4.5 
C 1.193414 4.5 2.338109 4.025852 3.181981 3.181981 
C 4.025852 2.338109 4.5 1.193414 4.5 0 
C 4.5 -1.193414 4.025852 -2.338109 3.181981 -3.181981 
C 2.338109 -4.025852 1.193414 -4.5 0 -4.5 
C -1.193414 -4.5 -2.338109 -4.025852 -3.181981 -3.181981 
C -4.025852 -2.338109 -4.5 -1.193414 -4.5 0 
C -4.5 1.193414 -4.025852 2.338109 -3.181981 3.181981 
C -2.338109 4.025852 -1.193414 4.5 0 4.5 
z
" style="stroke: #1f77b4"/>
    </defs>
    <g clip-path="url(#p6b10788e21)">
     <use xlink:href="#m421cc5a0d8" x="87.545917" y="167.127707" style="fill: #1f77b4; stroke: #1f77b4"/>
     <use xlink:href="#m421cc5a0d8" x="152.590641" y="90.112202" style="fill: #1f77b4; stroke: #1f77b4"/>
     <use xlink:href="#m421cc5a0d8" x="217.635365" y="103.612035" style="fill: #1f77b4; stroke: #1f77b4"/>
     <use xlink:href="#m421cc5a0d8" x="282.680089" y="163.889259" style="fill: #1f77b4; stroke: #1f77b4"/>
     <use xlink:href="#m421cc5a0d8" x="347.724812" y="241.333718" style="fill: #1f77b4; stroke: #1f77b4"/>
     <use xlink:href="#m421cc5a0d8" x="412.769536" y="244.142186" style="fill: #1f77b4; stroke: #1f77b4"/>
    </g>
   </g>
   <g id="line2d_20">
    <defs>
     <path id="mc5ee47b336" d="M 0 4.5 
C 1.193414 4.5 2.338109 4.025852 3.181981 3.181981 
C 4.025852 2.338109 4.5 1.193414 4.5 0 
C 4.5 -1.193414 4.025852 -2.338109 3.181981 -3.181981 
C 2.338109 -4.025852 1.193414 -4.5 0 -4.5 
C -1.193414 -4.5 -2.338109 -4.025852 -3.181981 -3.181981 
C -4.025852 -2.338109 -4.5 -1.193414 -4.5 0 
C -4.5 1.193414 -4.025852 2.338109 -3.181981 3.181981 
C -2.338109 4.025852 -1.193414 4.5 0 4.5 
z
" style="stroke: #ff7f0e"/>
    </defs>
    <g clip-path="url(#p6b10788e21)">
     <use xlink:href="#mc5ee47b336" x="87.545917" y="278.86491" style="fill: #ff7f0e; stroke: #ff7f0e"/>
     <use xlink:href="#mc5ee47b336" x="152.590641" y="161.886662" style="fill: #ff7f0e; stroke: #ff7f0e"/>
     <use xlink:href="#mc5ee47b336" x="217.635365" y="55.532205" style="fill: #ff7f0e; stroke: #ff7f0e"/>
     <use xlink:href="#mc5ee47b336" x="282.680089" y="61.912754" style="fill: #ff7f0e; stroke: #ff7f0e"/>
     <use xlink:href="#mc5ee47b336" x="347.724812" y="164.00107" style="fill: #ff7f0e; stroke: #ff7f0e"/>
     <use xlink:href="#mc5ee47b336" x="412.769536" y="274.043611" style="fill: #ff7f0e; stroke: #ff7f0e"/>
    </g>
   </g>
   <g id="line2d_21">
    <defs>
     <path id="mb1a78b93e4" d="M 0 4.5 
C 1.193414 4.5 2.338109 4.025852 3.181981 3.181981 
C 4.025852 2.338109 4.5 1.193414 4.5 0 
C 4.5 -1.193414 4.025852 -2.338109 3.181981 -3.181981 
C 2.338109 -4.025852 1.193414 -4.5 0 -4.5 
C -1.193414 -4.5 -2.338109 -4.025852 -3.181981 -3.181981 
C -4.025852 -2.338109 -4.5 -1.193414 -4.5 0 
C -4.5 1.193414 -4.025852 2.338109 -3.181981 3.181981 
C -2.338109 4.025852 -1.193414 4.5 0 4.5 
z
" style="stroke: #2ca02c"/>
    </defs>
    <g clip-path="url(#p6b10788e21)">
     <use xlink:href="#mb1a78b93e4" x="87.545917" y="205.362536" style="fill: #2ca02c; stroke: #2ca02c"/>
     <use xlink:href="#mb1a78b93e4" x="152.590641" y="243.295697" style="fill: #2ca02c; stroke: #2ca02c"/>
     <use xlink:href="#mb1a78b93e4" x="217.635365" y="185.268228" style="fill: #2ca02c; stroke: #2ca02c"/>
     <use xlink:href="#mb1a78b93e4" x="282.680089" y="129.679934" style="fill: #2ca02c; stroke: #2ca02c"/>
     <use xlink:href="#mb1a78b93e4" x="347.724812" y="111.806473" style="fill: #2ca02c; stroke: #2ca02c"/>
     <use xlink:href="#mb1a78b93e4" x="412.769536" y="155.927273" style="fill: #2ca02c; stroke: #2ca02c"/>
    </g>
   </g>
   <g id="legend_1">
    <g id="text_13">
     <text style="font: 15px 'Arial'; text-anchor: start" x="372.39924" y="46.596094" transform="rotate(-0 372.39924 46.596094)">Condition</text>
    </g>
    <g id="line2d_22">
     <path d="M 318.943458 57.479062 
L 327.943458 57.479062 
L 336.943458 57.479062 
" style="fill: none; stroke: #1f77b4; stroke-width: 2.6; stroke-linecap: square"/>
    </g>
    <g id="text_14">
     <text style="font: 9px 'Arial'; text-anchor: start" x="344.143458" y="60.629062" transform="rotate(-0 344.143458 60.629062)">A: amp=5.0, peak 6.0, R²=0.95 ****</text>
    </g>
    <g id="line2d_23">
     <path d="M 318.943458 70.319531 
L 327.943458 70.319531 
L 336.943458 70.319531 
" style="fill: none; stroke: #ff7f0e; stroke-width: 2.6; stroke-linecap: square"/>
    </g>
    <g id="text_15">
     <text style="font: 9px 'Arial'; text-anchor: start" x="344.143458" y="73.469531" transform="rotate(-0 344.143458 73.469531)">B: amp=7.5, peak 10.0, R²=0.98 ****</text>
    </g>
    <g id="line2d_24">
     <path d="M 318.943458 83.16 
L 327.943458 83.16 
L 336.943458 83.16 
" style="fill: none; stroke: #2ca02c; stroke-width: 2.6; stroke-linecap: square"/>
    </g>
    <g id="text_16">
     <text style="font: 9px 'Arial'; text-anchor: start" x="344.143458" y="86.31" transform="rotate(-0 344.143458 86.31)">C: amp=3.7, peak 15.2, R²=0.90 ****</text>
    </g>
   </g>
  </g>
 </g>
 <defs>
  <clipPath id="p6b10788e21">
   <rect x="68.0325" y="27.759375" width="429.295177" height="276.56077"/>
  </clipPath>
 </defs>
</svg>
